<svg width="68" height="68" viewBox="0 0 68 68" fill="none" xmlns="http://www.w3.org/2000/svg">
<path d="M53.1511 12.1288H17.6996C16.6885 12.1288 15.8689 12.9485 15.8689 13.9596V58.9573C15.8689 59.9684 16.6885 60.7881 17.6996 60.7881H53.1511C54.1623 60.7881 54.9819 59.9684 54.9819 58.9573V13.9596C54.9819 12.9485 54.1623 12.1288 53.1511 12.1288Z" fill="white"/>
<path d="M53.1512 12.9135C53.4286 12.9135 53.6947 13.0237 53.8909 13.2199C54.0871 13.4161 54.1973 13.6822 54.1973 13.9596V58.9442C54.1973 59.2217 54.0871 59.4878 53.8909 59.684C53.6947 59.8802 53.4286 59.9904 53.1512 59.9904H17.6997C17.4222 59.9904 17.1561 59.8802 16.9599 59.684C16.7637 59.4878 16.6535 59.2217 16.6535 58.9442V13.9596C16.6535 13.6822 16.7637 13.4161 16.9599 13.2199C17.1561 13.0237 17.4222 12.9135 17.6997 12.9135H53.1512ZM53.1512 11.3442H17.6997C17.006 11.3442 16.3408 11.6198 15.8503 12.1103C15.3598 12.6007 15.0843 13.266 15.0843 13.9596V58.9442C15.0843 59.6379 15.3598 60.3031 15.8503 60.7936C16.3408 61.2841 17.006 61.5596 17.6997 61.5596H53.1512C53.8448 61.5596 54.5101 61.2841 55.0005 60.7936C55.491 60.3031 55.7666 59.6379 55.7666 58.9442V13.9596C55.7666 13.266 55.491 12.6007 55.0005 12.1103C54.5101 11.6198 53.8448 11.3442 53.1512 11.3442Z" fill="#636363"/>
<path d="M55.7535 13.7635V59.1927C55.7535 59.8378 55.4972 60.4564 55.0411 60.9126C54.5849 61.3687 53.9663 61.625 53.3212 61.625H17.5297C16.8834 61.625 16.2633 61.3692 15.8051 60.9134C15.3469 60.4576 15.0877 59.839 15.0843 59.1927H48.4435C48.7674 59.1911 49.0877 59.1248 49.3856 58.9977C49.6835 58.8706 49.9531 58.6853 50.1784 58.4526C50.4038 58.22 50.5804 57.9447 50.6979 57.6429C50.8154 57.341 50.8714 57.0188 50.8627 56.695V11.3312H53.3081C53.6286 11.3294 53.9463 11.3911 54.2429 11.5125C54.5395 11.634 54.8092 11.8129 55.0365 12.0389C55.2637 12.2649 55.4441 12.5337 55.5671 12.8296C55.6902 13.1256 55.7535 13.4429 55.7535 13.7635Z" fill="#9747ff"/>
<path d="M54.8512 13.0573V31.8881H50.8627V11.8673H53.6481C53.8055 11.8656 53.9616 11.8951 54.1075 11.9541C54.2534 12.0131 54.3861 12.1005 54.498 12.2112C54.6099 12.3219 54.6987 12.4536 54.7593 12.5989C54.82 12.7441 54.8512 12.8999 54.8512 13.0573Z" fill="#EAEAEA"/>
<path d="M55.7666 31.2081H15.0843V32.7773H55.7666V31.2081Z" fill="#636363"/>
<path d="M53.1512 12.9135C53.4286 12.9135 53.6947 13.0237 53.8909 13.2199C54.0871 13.4161 54.1973 13.6822 54.1973 13.9596V58.9442C54.1973 59.2217 54.0871 59.4878 53.8909 59.684C53.6947 59.8802 53.4286 59.9904 53.1512 59.9904H17.6997C17.4222 59.9904 17.1561 59.8802 16.9599 59.684C16.7637 59.4878 16.6535 59.2217 16.6535 58.9442V13.9596C16.6535 13.6822 16.7637 13.4161 16.9599 13.2199C17.1561 13.0237 17.4222 12.9135 17.6997 12.9135H53.1512ZM53.1512 11.3442H17.6997C17.006 11.3442 16.3408 11.6198 15.8503 12.1103C15.3598 12.6007 15.0843 13.266 15.0843 13.9596V58.9442C15.0843 59.6379 15.3598 60.3031 15.8503 60.7936C16.3408 61.2841 17.006 61.5596 17.6997 61.5596H53.1512C53.8448 61.5596 54.5101 61.2841 55.0005 60.7936C55.491 60.3031 55.7666 59.6379 55.7666 58.9442V13.9596C55.7666 13.266 55.491 12.6007 55.0005 12.1103C54.5101 11.6198 53.8448 11.3442 53.1512 11.3442Z" fill="#636363"/>
<path d="M48.3781 40.7934H22.4728V42.3627H48.3781V40.7934Z" fill="#636363"/>
<path d="M48.3781 50.6273H22.4728V52.1966H48.3781V50.6273Z" fill="#636363"/>
<path d="M40.7019 44.2196C42.1608 44.2196 43.3434 43.037 43.3434 41.5781C43.3434 40.1192 42.1608 38.9366 40.7019 38.9366C39.243 38.9366 38.0604 40.1192 38.0604 41.5781C38.0604 43.037 39.243 44.2196 40.7019 44.2196Z" fill="#EAEAEA"/>
<path d="M40.7019 45.0042C40.0206 45.0068 39.3538 44.807 38.7862 44.4301C38.2187 44.0531 37.7758 43.5161 37.5139 42.8872C37.252 42.2582 37.1828 41.5656 37.315 40.8973C37.4473 40.2289 37.7751 39.6149 38.2569 39.1331C38.7387 38.6513 39.3527 38.3235 40.0211 38.1912C40.6894 38.0589 41.382 38.1282 42.011 38.3901C42.64 38.652 43.177 39.0948 43.5539 39.6624C43.9308 40.23 44.1306 40.8967 44.128 41.5781C44.1246 42.4857 43.7625 43.3551 43.1207 43.9969C42.4789 44.6387 41.6095 45.0008 40.7019 45.0042ZM40.7019 39.7735C40.332 39.7735 39.9705 39.8831 39.663 40.0886C39.3554 40.2941 39.1158 40.5861 38.9742 40.9278C38.8327 41.2695 38.7956 41.6455 38.8678 42.0083C38.94 42.371 39.1181 42.7042 39.3796 42.9657C39.6411 43.2273 39.9743 43.4054 40.3371 43.4775C40.6998 43.5497 41.0758 43.5126 41.4175 43.3711C41.7592 43.2296 42.0512 42.9899 42.2567 42.6824C42.4622 42.3748 42.5719 42.0133 42.5719 41.6435C42.5807 41.3924 42.5388 41.1422 42.4487 40.9077C42.3587 40.6733 42.2224 40.4593 42.0478 40.2787C41.8733 40.0981 41.6642 39.9544 41.4329 39.8564C41.2017 39.7584 40.953 39.7079 40.7019 39.7081V39.7735Z" fill="#636363"/>
<path d="M30.2927 54.0665C31.7516 54.0665 32.9342 52.8839 32.9342 51.425C32.9342 49.9661 31.7516 48.7835 30.2927 48.7835C28.8338 48.7835 27.6512 49.9661 27.6512 51.425C27.6512 52.8839 28.8338 54.0665 30.2927 54.0665Z" fill="#EAEAEA"/>
<path d="M30.2927 54.8511C29.6119 54.8511 28.9465 54.6491 28.3806 54.2706C27.8148 53.8921 27.374 53.3542 27.114 52.725C26.8541 52.0958 26.7868 51.4036 26.9205 50.7361C27.0543 50.0686 27.3832 49.4558 27.8655 48.9754C28.3478 48.4949 28.9618 48.1684 29.6298 48.0372C30.2978 47.9059 30.9897 47.9759 31.6179 48.2382C32.2461 48.5005 32.7824 48.9434 33.1587 49.5107C33.535 50.078 33.7345 50.7442 33.7319 51.425C33.7285 52.3348 33.3646 53.2063 32.72 53.8484C32.0754 54.4906 31.2026 54.8511 30.2927 54.8511ZM30.2927 49.6203C29.9229 49.6203 29.5613 49.73 29.2538 49.9355C28.9463 50.141 28.7066 50.433 28.5651 50.7747C28.4235 51.1164 28.3865 51.4924 28.4586 51.8552C28.5308 52.2179 28.7089 52.5511 28.9704 52.8126C29.2319 53.0742 29.5651 53.2523 29.9279 53.3244C30.2906 53.3966 30.6666 53.3595 31.0083 53.218C31.35 53.0765 31.6421 52.8368 31.8476 52.5293C32.053 52.2217 32.1627 51.8602 32.1627 51.4903C32.1715 51.2393 32.1296 50.9891 32.0396 50.7546C31.9495 50.5202 31.8132 50.3062 31.6387 50.1256C31.4641 49.945 31.255 49.8013 31.0238 49.7033C30.7925 49.6053 30.5439 49.5548 30.2927 49.555V49.6203Z" fill="#636363"/>
<path d="M50.8758 16.7711H44.1935V18.3404H50.8758V16.7711Z" fill="#636363"/>
<path d="M50.8758 19.4519H44.1935V21.0211H50.8758V19.4519Z" fill="#636363"/>
<path d="M48.2473 28.7365L44.1935 23.2965C44.1197 23.1742 44.0807 23.034 44.0807 22.8911C44.0807 22.7483 44.1197 22.6081 44.1935 22.4858C44.2581 22.3542 44.3588 22.2437 44.4838 22.1673C44.6089 22.0909 44.7531 22.0517 44.8996 22.0542H46.2073C46.4512 22.0542 46.6927 22.0062 46.918 21.9129C47.1432 21.8196 47.348 21.6828 47.5204 21.5103C47.6928 21.3379 47.8296 21.1332 47.9229 20.9079C48.0162 20.6826 48.0643 20.4412 48.0643 20.1973C48.0643 19.9534 48.0162 19.712 47.9229 19.4867C47.8296 19.2614 47.6928 19.0567 47.5204 18.8843C47.348 18.7118 47.1432 18.575 46.918 18.4817C46.6927 18.3884 46.4512 18.3404 46.2073 18.3404H44.1935V16.7711H46.2073C47.0826 16.7965 47.915 17.156 48.5335 17.7758C49.152 18.3957 49.5097 19.2288 49.5331 20.1042C49.5566 20.9795 49.244 21.8306 48.6595 22.4827C48.075 23.1347 47.2631 23.5383 46.3904 23.6104L49.4766 27.8081L48.2473 28.7365Z" fill="#636363"/>
<path d="M40.3749 7.15962H8.46727C7.74505 7.15962 7.15958 7.7451 7.15958 8.46731V23.4535C7.15958 24.1757 7.74505 24.7612 8.46727 24.7612H40.3749C41.0972 24.7612 41.6826 24.1757 41.6826 23.4535V8.46731C41.6826 7.7451 41.0972 7.15962 40.3749 7.15962Z" fill="white"/>
<path d="M39.0935 25.5458H9.775C8.87326 25.5458 8.00846 25.1876 7.37084 24.5499C6.73321 23.9123 6.375 23.0475 6.375 22.1458V9.775C6.375 8.87326 6.73321 8.00846 7.37084 7.37084C8.00846 6.73321 8.87326 6.375 9.775 6.375H39.0935C39.9941 6.37844 40.8569 6.73776 41.4938 7.37464C42.1307 8.01152 42.49 8.87432 42.4935 9.775V22.1458C42.49 23.0464 42.1307 23.9092 41.4938 24.5461C40.8569 25.183 39.9941 25.5423 39.0935 25.5458ZM9.775 7.94423C9.28945 7.94423 8.82379 8.13712 8.48045 8.48045C8.13712 8.82379 7.94423 9.28945 7.94423 9.775V22.1458C7.94423 22.6313 8.13712 23.097 8.48045 23.4403C8.82379 23.7837 9.28945 23.9765 9.775 23.9765H39.0935C39.579 23.9765 40.0447 23.7837 40.388 23.4403C40.7313 23.097 40.9242 22.6313 40.9242 22.1458V9.775C40.9242 9.28945 40.7313 8.82379 40.388 8.48045C40.0447 8.13712 39.579 7.94423 39.0935 7.94423H9.775Z" fill="#636363"/>
<path d="M41.7088 9.78808V22.1327C41.7088 22.8263 41.4333 23.4916 40.9428 23.9821C40.4523 24.4725 39.7871 24.7481 39.0934 24.7481H9.80114C9.1075 24.7481 8.44227 24.4725 7.95179 23.9821C7.46131 23.4916 7.18576 22.8263 7.18576 22.1327H36.4781C37.1717 22.1327 37.8369 21.8571 38.3274 21.3667C38.8179 20.8762 39.0934 20.211 39.0934 19.5173V7.15962C39.438 7.15962 39.7792 7.2277 40.0973 7.35995C40.4155 7.4922 40.7044 7.68602 40.9474 7.93027C41.1905 8.17452 41.3828 8.46438 41.5135 8.7832C41.6442 9.10203 41.7106 9.44353 41.7088 9.78808Z" fill="#9747ff"/>
<path d="M39.0935 25.5458H9.775C8.87326 25.5458 8.00846 25.1876 7.37084 24.5499C6.73321 23.9123 6.375 23.0475 6.375 22.1458V9.775C6.375 8.87326 6.73321 8.00846 7.37084 7.37084C8.00846 6.73321 8.87326 6.375 9.775 6.375H39.0935C39.9941 6.37844 40.8569 6.73776 41.4938 7.37464C42.1307 8.01152 42.49 8.87432 42.4935 9.775V22.1458C42.49 23.0464 42.1307 23.9092 41.4938 24.5461C40.8569 25.183 39.9941 25.5423 39.0935 25.5458ZM9.775 7.94423C9.28945 7.94423 8.82379 8.13712 8.48045 8.48045C8.13712 8.82379 7.94423 9.28945 7.94423 9.775V22.1458C7.94423 22.6313 8.13712 23.097 8.48045 23.4403C8.82379 23.7837 9.28945 23.9765 9.775 23.9765H39.0935C39.579 23.9765 40.0447 23.7837 40.388 23.4403C40.7313 23.097 40.9242 22.6313 40.9242 22.1458V9.775C40.9242 9.28945 40.7313 8.82379 40.388 8.48045C40.0447 8.13712 39.579 7.94423 39.0935 7.94423H9.775Z" fill="#636363"/>
<path d="M16.235 11.2135H22.7735V12.7042H17.922V15.1888H22.7081V16.6665H17.922V20.7988H16.235V11.2135Z" fill="#636363"/>
<path d="M24.892 11.2134H28.462C29.1124 11.1795 29.763 11.2782 30.374 11.5037C30.9851 11.7292 31.5438 12.0768 32.0162 12.5252C32.4887 12.9735 32.8649 13.5134 33.122 14.1118C33.379 14.7103 33.5116 15.3548 33.5116 16.0061C33.5116 16.6575 33.379 17.302 33.122 17.9004C32.8649 18.4989 32.4887 19.0387 32.0162 19.4871C31.5438 19.9355 30.9851 20.283 30.374 20.5085C29.763 20.7341 29.1124 20.8328 28.462 20.7988H24.892V11.2134ZM28.462 19.3211C28.8984 19.3417 29.3344 19.2708 29.7419 19.1131C30.1494 18.9554 30.5195 18.7143 30.8285 18.4054C31.1375 18.0964 31.3785 17.7263 31.5362 17.3188C31.6939 16.9113 31.7648 16.4753 31.7443 16.0388C31.7771 15.5982 31.7149 15.1557 31.5619 14.7412C31.4089 14.3267 31.1687 13.9498 30.8575 13.6362C30.5463 13.3225 30.1714 13.0793 29.7581 12.923C29.3449 12.7668 28.9028 12.7011 28.462 12.7304H26.5789V19.3473L28.462 19.3211Z" fill="#636363"/>
</svg>
