<svg width="68" height="68" viewBox="0 0 68 68" fill="none" xmlns="http://www.w3.org/2000/svg">
<path d="M50.1652 59.7491H10.7549V20.7384L23.2423 8.25092H50.1652V59.7491Z" fill="white"/>
<path d="M50.1908 7.50163H23.2429C23.1443 7.49847 23.0463 7.51697 22.9557 7.5558C22.8651 7.59464 22.7841 7.65287 22.7184 7.7264L10.231 20.2138C10.1599 20.2815 10.1034 20.3629 10.0647 20.453C10.0261 20.5432 10.0062 20.6402 10.0062 20.7383V59.7491C10.0027 59.8484 10.0197 59.9474 10.0561 60.0399C10.0925 60.1324 10.1476 60.2164 10.2179 60.2866C10.2882 60.3569 10.3721 60.412 10.4646 60.4484C10.5571 60.4848 10.6561 60.5018 10.7554 60.4983H26.7643V58.9749H11.5047V21.063L23.5426 9.02509H49.4415V33.3506H50.94V8.37575C50.9583 8.26743 50.9526 8.15642 50.9232 8.05056C50.8939 7.94471 50.8416 7.8466 50.7701 7.7632C50.6986 7.67979 50.6097 7.61313 50.5096 7.56792C50.4094 7.52272 50.3006 7.50009 50.1908 7.50163Z" fill="#636363"/>
<path d="M23.2423 20.7384H10.7549L23.2423 8.25092V20.7384Z" fill="white"/>
<path d="M23.2174 21.5134H10.73C10.5848 21.5177 10.4419 21.4768 10.3211 21.3962C10.2002 21.3157 10.1075 21.1995 10.0557 21.0638C9.99571 20.9271 9.97794 20.7757 10.0046 20.6288C10.0313 20.482 10.1013 20.3465 10.2055 20.2396L22.6929 7.7522C22.797 7.64379 22.9312 7.56915 23.0781 7.53798C23.2251 7.5068 23.378 7.52053 23.5171 7.57738C23.6508 7.63913 23.7641 7.73771 23.8437 7.86157C23.9233 7.98543 23.966 8.12943 23.9667 8.27668V20.7641C23.9702 20.8634 23.9532 20.9624 23.9167 21.0549C23.8803 21.1474 23.8253 21.2314 23.755 21.3017C23.6847 21.372 23.6007 21.427 23.5082 21.4634C23.4157 21.4999 23.3167 21.5169 23.2174 21.5134ZM12.5531 20.0149H22.5431V10.0249L12.5531 20.0149Z" fill="#636363"/>
<path d="M57.2331 36.1478H50.29V59.749H57.2331V36.1478Z" fill="white"/>
<path d="M57.2582 60.4983H50.2902C50.1909 60.5018 50.0919 60.4848 49.9994 60.4484C49.9069 60.412 49.8229 60.3569 49.7527 60.2866C49.6824 60.2164 49.6273 60.1324 49.5909 60.0399C49.5545 59.9474 49.5375 59.8484 49.541 59.7491V36.1478C49.5375 36.0485 49.5545 35.9495 49.5909 35.857C49.6273 35.7645 49.6824 35.6805 49.7527 35.6103C49.8229 35.54 49.9069 35.4849 49.9994 35.4485C50.0919 35.4121 50.1909 35.3951 50.2902 35.3986H57.2582C57.4569 35.3986 57.6475 35.4775 57.788 35.618C57.9285 35.7585 58.0075 35.9491 58.0075 36.1478V59.7491C58.0075 59.9478 57.9285 60.1384 57.788 60.2789C57.6475 60.4194 57.4569 60.4983 57.2582 60.4983ZM51.0395 58.9749H56.509V36.8971H51.0395V58.9749Z" fill="#636363"/>
<path d="M46.7686 43.7153H39.8256V59.7491H46.7686V43.7153Z" fill="white"/>
<path d="M46.7938 60.4983H39.8258C39.7285 60.4983 39.6323 60.4788 39.5427 60.4408C39.4532 60.4029 39.3722 60.3473 39.3046 60.2774C39.237 60.2075 39.1842 60.1246 39.1493 60.0339C39.1144 59.9431 39.0982 59.8462 39.1015 59.749V43.7151C39.0982 43.618 39.1144 43.5211 39.1493 43.4303C39.1842 43.3395 39.237 43.2567 39.3046 43.1868C39.3722 43.1169 39.4532 43.0613 39.5427 43.0233C39.6323 42.9854 39.7285 42.9658 39.8258 42.9659H46.7938C46.8931 42.9624 46.9921 42.9794 47.0846 43.0158C47.1771 43.0522 47.261 43.1073 47.3313 43.1776C47.4016 43.2479 47.4567 43.3319 47.4931 43.4243C47.5295 43.5168 47.5465 43.6158 47.543 43.7151V59.749C47.5465 59.8484 47.5295 59.9473 47.4931 60.0398C47.4567 60.1323 47.4016 60.2163 47.3313 60.2866C47.261 60.3569 47.1771 60.4119 47.0846 60.4483C46.9921 60.4848 46.8931 60.5018 46.7938 60.4983ZM40.575 58.9748H46.0445V44.4644H40.575V58.9748Z" fill="#636363"/>
<path d="M36.3293 50.3835H29.3862V59.7491H36.3293V50.3835Z" fill="white"/>
<path d="M36.3293 60.4984H29.3863C29.287 60.5019 29.188 60.4849 29.0955 60.4484C29.003 60.412 28.919 60.357 28.8487 60.2867C28.7784 60.2164 28.7234 60.1324 28.687 60.0399C28.6505 59.9474 28.6336 59.8485 28.637 59.7491V50.3835C28.6336 50.2842 28.6505 50.1852 28.687 50.0927C28.7234 50.0003 28.7784 49.9163 28.8487 49.846C28.919 49.7757 29.003 49.7206 29.0955 49.6842C29.188 49.6478 29.287 49.6308 29.3863 49.6343H36.3293C36.4286 49.6308 36.5276 49.6478 36.6201 49.6842C36.7126 49.7206 36.7966 49.7757 36.8669 49.846C36.9371 49.9163 36.9922 50.0003 37.0286 50.0927C37.065 50.1852 37.082 50.2842 37.0786 50.3835V59.7491C37.082 59.8485 37.065 59.9474 37.0286 60.0399C36.9922 60.1324 36.9371 60.2164 36.8669 60.2867C36.7966 60.357 36.7126 60.412 36.6201 60.4484C36.5276 60.4849 36.4286 60.5019 36.3293 60.4984ZM30.1355 58.9749H35.5801V51.1328H30.1355V58.9749Z" fill="#636363"/>
<path d="M57.2331 36.1478H54.7356V59.749H57.2331V36.1478Z" fill="#9747ff"/>
<path d="M46.7935 43.7153H44.296V59.7491H46.7935V43.7153Z" fill="#9747ff"/>
<path d="M36.3292 50.3835H33.8317V59.7491H36.3292V50.3835Z" fill="#9747ff"/>
<path d="M57.2582 60.4983H50.2902C50.1909 60.5018 50.0919 60.4848 49.9994 60.4484C49.9069 60.412 49.8229 60.3569 49.7527 60.2866C49.6824 60.2164 49.6273 60.1324 49.5909 60.0399C49.5545 59.9474 49.5375 59.8484 49.541 59.7491V36.1478C49.5375 36.0485 49.5545 35.9495 49.5909 35.857C49.6273 35.7645 49.6824 35.6805 49.7527 35.6103C49.8229 35.54 49.9069 35.4849 49.9994 35.4485C50.0919 35.4121 50.1909 35.3951 50.2902 35.3986H57.2582C57.4569 35.3986 57.6475 35.4775 57.788 35.618C57.9285 35.7585 58.0075 35.9491 58.0075 36.1478V59.7491C58.0075 59.9478 57.9285 60.1384 57.788 60.2789C57.6475 60.4194 57.4569 60.4983 57.2582 60.4983ZM51.0395 58.9749H56.509V36.8971H51.0395V58.9749Z" fill="#636363"/>
<path d="M46.7938 60.4983H39.8258C39.7285 60.4983 39.6323 60.4788 39.5427 60.4408C39.4532 60.4029 39.3722 60.3473 39.3046 60.2774C39.237 60.2075 39.1842 60.1246 39.1493 60.0339C39.1144 59.9431 39.0982 59.8462 39.1015 59.749V43.7151C39.0982 43.618 39.1144 43.5211 39.1493 43.4303C39.1842 43.3395 39.237 43.2567 39.3046 43.1868C39.3722 43.1169 39.4532 43.0613 39.5427 43.0233C39.6323 42.9854 39.7285 42.9658 39.8258 42.9659H46.7938C46.8931 42.9624 46.9921 42.9794 47.0846 43.0158C47.1771 43.0522 47.261 43.1073 47.3313 43.1776C47.4016 43.2479 47.4567 43.3319 47.4931 43.4243C47.5295 43.5168 47.5465 43.6158 47.543 43.7151V59.749C47.5465 59.8484 47.5295 59.9473 47.4931 60.0398C47.4567 60.1323 47.4016 60.2163 47.3313 60.2866C47.261 60.3569 47.1771 60.4119 47.0846 60.4483C46.9921 60.4848 46.8931 60.5018 46.7938 60.4983ZM40.575 58.9748H46.0445V44.4644H40.575V58.9748Z" fill="#636363"/>
<path d="M36.3293 60.4984H29.3863C29.287 60.5019 29.188 60.4849 29.0955 60.4484C29.003 60.412 28.919 60.357 28.8487 60.2867C28.7784 60.2164 28.7234 60.1324 28.687 60.0399C28.6505 59.9474 28.6336 59.8485 28.637 59.7491V50.3835C28.6336 50.2842 28.6505 50.1852 28.687 50.0927C28.7234 50.0003 28.7784 49.9163 28.8487 49.846C28.919 49.7757 29.003 49.7206 29.0955 49.6842C29.188 49.6478 29.287 49.6308 29.3863 49.6343H36.3293C36.4286 49.6308 36.5276 49.6478 36.6201 49.6842C36.7126 49.7206 36.7966 49.7757 36.8669 49.846C36.9371 49.9163 36.9922 50.0003 37.0286 50.0927C37.065 50.1852 37.082 50.2842 37.0786 50.3835V59.7491C37.082 59.8485 37.065 59.9474 37.0286 60.0399C36.9922 60.1324 36.9371 60.2164 36.8669 60.2867C36.7966 60.357 36.7126 60.412 36.6201 60.4484C36.5276 60.4849 36.4286 60.5019 36.3293 60.4984ZM30.1355 58.9749H35.5801V51.1328H30.1355V58.9749Z" fill="#636363"/>
<path d="M46.1444 21.6374H27.2384V23.1359H46.1444V21.6374Z" fill="#636363"/>
<path d="M46.1444 16.9172H27.2384V18.4157H46.1444V16.9172Z" fill="#636363"/>
<path d="M23.9916 48.7601H14.7759V50.2586H23.9916V48.7601Z" fill="#636363"/>
<path d="M32.1834 44.015H14.7759V45.5134H32.1834V44.015Z" fill="#636363"/>
<path d="M45.42 28.5055H15.525V38.1458H45.42V28.5055Z" fill="#9747ff"/>
</svg>
