<svg width="68" height="68" viewBox="0 0 68 68" fill="none" xmlns="http://www.w3.org/2000/svg">
<g clip-path="url(#clip0_5816_44122)">
<path d="M51.4796 12.4076H17.2786C16.3028 12.4076 15.5118 13.1987 15.5118 14.1745V57.5883C15.5118 58.5641 16.3028 59.3551 17.2786 59.3551H51.4796C52.4554 59.3551 53.2465 58.5641 53.2465 57.5883V14.1745C53.2465 13.1987 52.4554 12.4076 51.4796 12.4076Z" fill="white"/>
<path d="M51.48 13.1647C51.7478 13.1647 52.0046 13.2711 52.1939 13.4604C52.3833 13.6498 52.4896 13.9066 52.4896 14.1743V57.5881C52.4896 57.8559 52.3833 58.1127 52.1939 58.302C52.0046 58.4914 51.7478 58.5977 51.48 58.5977H17.279C17.0112 58.5977 16.7544 58.4914 16.5651 58.302C16.3757 58.1127 16.2694 57.8559 16.2694 57.5881V14.1743C16.2694 13.9066 16.3757 13.6498 16.5651 13.4604C16.7544 13.2711 17.0112 13.1647 17.279 13.1647H51.48ZM51.48 11.6503H17.279C16.6096 11.6503 15.9676 11.9162 15.4942 12.3895C15.0209 12.8629 14.7549 13.5049 14.7549 14.1743V57.5881C14.7549 58.2575 15.0209 58.8996 15.4942 59.3729C15.9676 59.8463 16.6096 60.1122 17.279 60.1122H51.48C52.1494 60.1122 52.7914 59.8463 53.2648 59.3729C53.7381 58.8996 54.0041 58.2575 54.0041 57.5881V14.1743C54.0041 13.5049 53.7381 12.8629 53.2648 12.3895C52.7914 11.9162 52.1494 11.6503 51.48 11.6503Z" fill="#636363"/>
<path d="M24.1443 42.8224C25.5522 42.8224 26.6936 41.6811 26.6936 40.2731C26.6936 38.8652 25.5522 37.7238 24.1443 37.7238C22.7363 37.7238 21.595 38.8652 21.595 40.2731C21.595 41.6811 22.7363 42.8224 24.1443 42.8224Z" fill="#EAEAEA"/>
<path d="M24.0439 43.5797C23.3828 43.5847 22.7351 43.3929 22.1834 43.0287C21.6316 42.6645 21.2007 42.1445 20.9454 41.5346C20.6901 40.9248 20.622 40.2528 20.7498 39.6042C20.8775 38.9556 21.1953 38.3596 21.6628 37.8921C22.1303 37.4246 22.7262 37.1068 23.3749 36.9791C24.0235 36.8513 24.6955 36.9194 25.3053 37.1747C25.9151 37.43 26.4352 37.861 26.7994 38.4127C27.1636 38.9645 27.3554 39.6121 27.3504 40.2732C27.3504 41.1501 27.002 41.9911 26.3819 42.6112C25.7618 43.2313 24.9208 43.5797 24.0439 43.5797ZM24.0439 38.5316C23.6834 38.5266 23.3296 38.6289 23.0274 38.8255C22.7253 39.0221 22.4884 39.3042 22.347 39.6358C22.2056 39.9674 22.1659 40.3335 22.2332 40.6877C22.3004 41.0419 22.4715 41.368 22.7246 41.6247C22.9777 41.8814 23.3015 42.057 23.6547 42.1292C24.0079 42.2014 24.3746 42.1669 24.7081 42.0302C25.0417 41.8934 25.327 41.6605 25.5278 41.3611C25.7286 41.0617 25.8359 40.7094 25.8359 40.3489C25.8497 40.1052 25.8135 39.8613 25.7296 39.632C25.6457 39.4028 25.5159 39.1932 25.3481 39.0159C25.1803 38.8387 24.9781 38.6975 24.7538 38.6012C24.5295 38.5049 24.2879 38.4555 24.0439 38.4558V38.5316Z" fill="#636363"/>
<path d="M34.3925 42.8224C35.8004 42.8224 36.9418 41.6811 36.9418 40.2731C36.9418 38.8652 35.8004 37.7238 34.3925 37.7238C32.9846 37.7238 31.8432 38.8652 31.8432 40.2731C31.8432 41.6811 32.9846 42.8224 34.3925 42.8224Z" fill="#EAEAEA"/>
<path d="M34.3924 43.5797C33.7313 43.5847 33.0837 43.3929 32.5319 43.0287C31.9802 42.6645 31.5492 42.1445 31.2939 41.5346C31.0386 40.9248 30.9705 40.2528 31.0983 39.6042C31.226 38.9556 31.5438 38.3596 32.0113 37.8921C32.4788 37.4246 33.0748 37.1068 33.7234 36.9791C34.372 36.8513 35.044 36.9194 35.6538 37.1747C36.2637 37.43 36.7837 37.861 37.1479 38.4127C37.5121 38.9645 37.7039 39.6121 37.6989 40.2732C37.6923 41.1481 37.3418 41.9853 36.7231 42.6039C36.1045 43.2226 35.2673 43.5731 34.3924 43.5797ZM34.3924 38.5316C34.0319 38.5266 33.6781 38.6289 33.3759 38.8255C33.0738 39.0221 32.8369 39.3042 32.6955 39.6358C32.5541 39.9674 32.5145 40.3335 32.5817 40.6877C32.6489 41.0419 32.82 41.368 33.0731 41.6247C33.3263 41.8814 33.65 42.057 34.0032 42.1292C34.3564 42.2014 34.7231 42.1669 35.0566 42.0302C35.3902 41.8934 35.6755 41.6605 35.8763 41.3611C36.0772 41.0617 36.1844 40.7094 36.1844 40.3489C36.1946 40.106 36.1559 39.8636 36.0707 39.636C35.9855 39.4084 35.8556 39.2002 35.6885 39.0236C35.5214 38.8471 35.3206 38.7059 35.0979 38.6084C34.8753 38.5109 34.6354 38.459 34.3924 38.4558V38.5316Z" fill="#636363"/>
<path d="M44.64 37.6987C43.9706 37.6987 43.3286 37.9646 42.8553 38.4379C42.3819 38.9113 42.116 39.5533 42.116 40.2227V50.4452C42.0658 51.1146 42.2836 51.7765 42.7214 52.2854C43.1593 52.7942 43.7813 53.1083 44.4507 53.1585C45.1202 53.2087 45.7821 52.991 46.291 52.5531C46.7998 52.1153 47.1139 51.4932 47.1641 50.8238V40.2227C47.1641 39.5533 46.8982 38.9113 46.4248 38.4379C45.9515 37.9646 45.3095 37.6987 44.64 37.6987Z" fill="#EAEAEA"/>
<path d="M44.6148 54.0545H44.3876C43.5077 53.9899 42.6894 53.5789 42.1121 52.9117C41.5348 52.2445 41.2457 51.3756 41.3082 50.4956V40.3994C41.3082 39.5157 41.6593 38.6683 42.2841 38.0434C42.9089 37.4186 43.7564 37.0676 44.64 37.0676C45.0764 37.0676 45.5084 37.1539 45.9112 37.3217C46.314 37.4894 46.6797 37.7352 46.987 38.045C47.2944 38.3547 47.5374 38.7222 47.7021 39.1263C47.8668 39.5303 47.9498 39.963 47.9465 40.3994V51.0509C47.8648 51.8765 47.478 52.6419 46.8619 53.1974C46.2457 53.7529 45.4444 54.0585 44.6148 54.0545ZM44.6148 37.7491V38.5063C44.1328 38.5063 43.6705 38.6978 43.3297 39.0386C42.9889 39.3794 42.7974 39.8416 42.7974 40.3236V50.5461C42.7732 50.7905 42.7987 51.0372 42.8724 51.2715C42.9462 51.5058 43.0666 51.7227 43.2265 51.9091C43.3784 52.0934 43.5666 52.2446 43.7793 52.3531C43.9921 52.4617 44.2249 52.5253 44.4633 52.5401C44.7008 52.5608 44.94 52.5338 45.167 52.4609C45.3939 52.388 45.604 52.2705 45.785 52.1154C45.966 51.9603 46.1142 51.7706 46.221 51.5575C46.3278 51.3443 46.391 51.112 46.4068 50.8742V40.2732C46.4102 40.0357 46.3663 39.7999 46.2777 39.5796C46.1892 39.3592 46.0577 39.1587 45.891 38.9896C45.7242 38.8205 45.5255 38.6863 45.3064 38.5946C45.0874 38.503 44.8522 38.4558 44.6148 38.4558V37.7491Z" fill="#636363"/>
<path d="M24.1443 53.045C25.5522 53.045 26.6936 51.9036 26.6936 50.4957C26.6936 49.0877 25.5522 47.9464 24.1443 47.9464C22.7363 47.9464 21.595 49.0877 21.595 50.4957C21.595 51.9036 22.7363 53.045 24.1443 53.045Z" fill="#EAEAEA"/>
<path d="M24.0428 53.8021C23.3889 53.8021 22.7496 53.6082 22.2058 53.2448C21.6621 52.8815 21.2383 52.3651 20.988 51.7609C20.7378 51.1567 20.6723 50.4919 20.7999 49.8505C20.9274 49.2091 21.2424 48.6199 21.7048 48.1575C22.1672 47.6951 22.7564 47.3802 23.3978 47.2526C24.0392 47.125 24.704 47.1905 25.3082 47.4407C25.9124 47.691 26.4288 48.1148 26.7921 48.6586C27.1554 49.2023 27.3494 49.8416 27.3494 50.4956C27.3494 51.3725 27.001 52.2135 26.3809 52.8336C25.7608 53.4537 24.9198 53.8021 24.0428 53.8021ZM24.0428 48.754C23.6884 48.754 23.3419 48.8591 23.0472 49.056C22.7525 49.2529 22.5228 49.5328 22.3872 49.8603C22.2515 50.1877 22.2161 50.548 22.2852 50.8957C22.3543 51.2433 22.525 51.5626 22.7757 51.8132C23.0263 52.0639 23.3456 52.2346 23.6932 52.3037C24.0409 52.3729 24.4012 52.3374 24.7286 52.2017C25.0561 52.0661 25.336 51.8364 25.5329 51.5417C25.7298 51.247 25.8349 50.9005 25.8349 50.5461C25.8417 50.3065 25.8003 50.068 25.7133 49.8447C25.6262 49.6215 25.4953 49.4179 25.3282 49.2461C25.1611 49.0743 24.9613 48.9378 24.7405 48.8446C24.5197 48.7514 24.2825 48.7034 24.0428 48.7035V48.754Z" fill="#636363"/>
<path d="M34.3925 53.045C35.8004 53.045 36.9418 51.9036 36.9418 50.4957C36.9418 49.0877 35.8004 47.9464 34.3925 47.9464C32.9846 47.9464 31.8432 49.0877 31.8432 50.4957C31.8432 51.9036 32.9846 53.045 34.3925 53.045Z" fill="#EAEAEA"/>
<path d="M34.3918 53.8021C33.7379 53.8021 33.0986 53.6082 32.5548 53.2448C32.0111 52.8815 31.5873 52.3651 31.337 51.7609C31.0868 51.1567 31.0213 50.4919 31.1489 49.8505C31.2764 49.2091 31.5914 48.6199 32.0538 48.1575C32.5162 47.6951 33.1054 47.3802 33.7468 47.2526C34.3882 47.125 35.053 47.1905 35.6572 47.4407C36.2614 47.691 36.7778 48.1148 37.1411 48.6586C37.5044 49.2023 37.6984 49.8416 37.6984 50.4956C37.6918 51.3705 37.3413 52.2077 36.7226 52.8263C36.1039 53.445 35.2667 53.7955 34.3918 53.8021ZM34.3918 48.754C34.0374 48.754 33.6909 48.8591 33.3962 49.056C33.1015 49.2529 32.8718 49.5328 32.7362 49.8603C32.6005 50.1877 32.5651 50.548 32.6342 50.8957C32.7033 51.2433 32.874 51.5626 33.1247 51.8132C33.3753 52.0639 33.6946 52.2346 34.0422 52.3037C34.3899 52.3729 34.7502 52.3374 35.0776 52.2017C35.4051 52.0661 35.685 51.8364 35.8819 51.5417C36.0788 51.247 36.1839 50.9005 36.1839 50.5461C36.1907 50.3065 36.1493 50.068 36.0623 49.8447C35.9752 49.6215 35.8443 49.4179 35.6772 49.2461C35.5101 49.0743 35.3103 48.9378 35.0895 48.8446C34.8687 48.7514 34.6315 48.7034 34.3918 48.7035V48.754Z" fill="#636363"/>
<path d="M54.0041 13.9976V57.7901C54.0041 58.4126 53.7567 59.0097 53.3165 59.4499C52.8763 59.8901 52.2792 60.1374 51.6567 60.1374H17.1023C16.4798 60.1374 15.8827 59.8901 15.4425 59.4499C15.0023 59.0097 14.7549 58.4126 14.7549 57.7901H46.9367C47.2471 57.7901 47.5544 57.7285 47.8409 57.609C48.1273 57.4894 48.3872 57.3143 48.6055 57.0936C48.8238 56.873 48.9962 56.6112 49.1127 56.3235C49.2291 56.0358 49.2874 55.7278 49.2841 55.4174V11.6503H51.6567C51.9649 11.6503 52.2702 11.711 52.555 11.829C52.8398 11.9469 53.0985 12.1198 53.3165 12.3378C53.5345 12.5558 53.7074 12.8145 53.8254 13.0993C53.9433 13.3841 54.0041 13.6894 54.0041 13.9976Z" fill="#9747ff"/>
<path d="M53.1204 13.3161V31.4893H49.2838V12.1803H51.9846C52.2858 12.1803 52.5747 12.3 52.7877 12.513C53.0007 12.726 53.1204 13.0149 53.1204 13.3161Z" fill="#EAEAEA"/>
<path d="M54.0041 30.8331H14.7549V32.3476H54.0041V30.8331Z" fill="#636363"/>
<path d="M51.48 13.1647C51.7478 13.1647 52.0046 13.2711 52.1939 13.4604C52.3833 13.6498 52.4896 13.9066 52.4896 14.1743V57.5881C52.4896 57.8559 52.3833 58.1127 52.1939 58.302C52.0046 58.4914 51.7478 58.5977 51.48 58.5977H17.279C17.0112 58.5977 16.7544 58.4914 16.5651 58.302C16.3757 58.1127 16.2694 57.8559 16.2694 57.5881V14.1743C16.2694 13.9066 16.3757 13.6498 16.5651 13.4604C16.7544 13.2711 17.0112 13.1647 17.279 13.1647H51.48ZM51.48 11.6503H17.279C16.6096 11.6503 15.9676 11.9162 15.4942 12.3895C15.0209 12.8629 14.7549 13.5049 14.7549 14.1743V57.5881C14.7549 58.2575 15.0209 58.8996 15.4942 59.3729C15.9676 59.8463 16.6096 60.1122 17.279 60.1122H51.48C52.1494 60.1122 52.7914 59.8463 53.2648 59.3729C53.7381 58.8996 54.0041 58.2575 54.0041 57.5881V14.1743C54.0041 13.5049 53.7381 12.8629 53.2648 12.3895C52.7914 11.9162 52.1494 11.6503 51.48 11.6503Z" fill="#636363"/>
<g clip-path="url(#clip1_5816_44122)">
<path d="M28.5073 9.83835C28.5073 14.0321 25.1385 17.4008 20.9448 17.4008C16.751 17.4008 13.3823 14.0321 13.3823 9.83835C13.3823 5.6446 16.751 2.27585 20.9448 2.27585C25.1385 2.27585 28.5073 5.6446 28.5073 9.83835Z" fill="white"/>
<path fill-rule="evenodd" clip-rule="evenodd" d="M29.8728 9.83836C29.8728 14.7863 25.8927 18.7664 20.9448 18.7664C15.9969 18.7664 12.0168 14.7863 12.0168 9.83836C12.0168 4.89045 15.9969 0.910339 20.9448 0.910339C25.8927 0.910339 29.8728 4.89045 29.8728 9.83836ZM20.9448 17.4009C25.1386 17.4009 28.5073 14.0321 28.5073 9.83836C28.5073 5.64461 25.1386 2.27586 20.9448 2.27586C16.7511 2.27586 13.3823 5.64461 13.3823 9.83836C13.3823 14.0321 16.7511 17.4009 20.9448 17.4009Z" fill="#636363"/>
<path d="M23.664 5H18.0841V6.31291H23.664V5Z" fill="#636363"/>
<path d="M23.664 7.23196H18.0841V8.54487H23.664V7.23196Z" fill="#636363"/>
<path d="M21.4769 15L18.107 10.4486C18.0374 10.3492 18 10.2308 18 10.1094C18 9.98804 18.0374 9.86962 18.107 9.77024C18.1589 9.66222 18.2393 9.57045 18.3396 9.50487C18.4399 9.4393 18.5562 9.40243 18.676 9.39825H19.8357C20.0537 9.42426 20.2748 9.40377 20.4843 9.33812C20.6938 9.27247 20.887 9.16317 21.0512 9.0174C21.2154 8.87164 21.3468 8.69273 21.4368 8.49246C21.5268 8.2922 21.5734 8.07514 21.5734 7.85558C21.5734 7.63602 21.5268 7.41896 21.4368 7.2187C21.3468 7.01843 21.2154 6.83952 21.0512 6.69376C20.887 6.54799 20.6938 6.43869 20.4843 6.37304C20.2748 6.30739 20.0537 6.2869 19.8357 6.31291H18.1508V5H19.8357C20.5536 5.04052 21.23 5.34933 21.7309 5.86521C22.2317 6.38109 22.5204 7.06636 22.5397 7.78512C22.559 8.50387 22.3074 9.20362 21.8349 9.74561C21.3625 10.2876 20.7036 10.6322 19.9889 10.7112L22.5709 14.2123L21.4769 15Z" fill="#636363"/>
<path d="M35.2448 17.4688C34.4198 16.7813 33.1136 16.85 32.4261 17.675L27.8198 22.4188C27.5448 21.5938 26.7886 20.975 25.8261 20.975H18.2636C17.3011 20.5625 16.2011 20.2875 15.0323 20.2875C11.9386 20.2875 9.18857 21.8 7.88232 24.6875L13.9323 30.7375L14.9636 29.7063C15.4448 29.225 16.1323 28.95 16.8198 28.95H25.7573C27.1323 28.95 28.5073 28.4 29.4698 27.4375L35.4511 20.2188C36.2073 19.4625 36.1386 18.1563 35.2448 17.4688Z" fill="white"/>
<path fill-rule="evenodd" clip-rule="evenodd" d="M34.3911 18.5348L34.3706 18.5178C34.2471 18.4148 34.0665 18.3544 33.8747 18.3672C33.686 18.3798 33.5518 18.4571 33.4751 18.5492L33.4419 18.589L27.2347 24.9815L26.5244 22.8506C26.4216 22.5422 26.1588 22.3405 25.8261 22.3405H17.9833L17.7257 22.2301C16.9043 21.8781 15.9872 21.653 15.0323 21.653C12.7213 21.653 10.7319 22.6265 9.56608 24.4401L13.9323 28.8064L13.998 28.7407C14.7458 27.9929 15.7852 27.5845 16.8198 27.5845H25.7573C26.7648 27.5845 27.7677 27.1843 28.4625 26.5129L34.4403 19.2983L34.4855 19.2532C34.6534 19.0853 34.6589 18.7408 34.4123 18.5511L34.3911 18.5348ZM29.4698 27.4375C28.5073 28.4 27.1323 28.95 25.7573 28.95H16.8198C16.1323 28.95 15.4448 29.225 14.9636 29.7063L13.9323 30.7375L7.88232 24.6875C9.18857 21.8 11.9386 20.2875 15.0323 20.2875C16.2011 20.2875 17.3011 20.5625 18.2636 20.975H25.8261C26.2632 20.975 26.6578 21.1026 26.9841 21.3193C27.3762 21.5796 27.6697 21.9684 27.8198 22.4188L32.4261 17.675C33.1136 16.85 34.4198 16.7813 35.2448 17.4688C36.1386 18.1563 36.2073 19.4625 35.4511 20.2188L29.4698 27.4375Z" fill="#636363"/>
<path d="M13.7937 32.4561L10.5625 35.6874L3 28.1249L6.1625 24.8936C6.7125 24.3436 7.5375 24.3436 8.0875 24.8936L13.7937 30.5999C14.3438 31.1499 14.3438 31.9749 13.7937 32.4561Z" fill="#9747ff"/>
<path d="M27.8876 22.4186C27.8876 22.4186 29.4522 25.446 25.1897 25.446C20.9272 25.446 18.6063 24.5499 18.6063 24.5499C18.6063 24.5499 26.8966 25.446 27.8876 22.4186Z" fill="#636363"/>
</g>
</g>
<defs>
<clipPath id="clip0_5816_44122">
<rect width="68" height="68" fill="white"/>
</clipPath>
<clipPath id="clip1_5816_44122">
<rect width="33" height="35.2759" fill="white" transform="translate(3)"/>
</clipPath>
</defs>
</svg>
