<svg width="68" height="68" viewBox="0 0 68 68" fill="none" xmlns="http://www.w3.org/2000/svg">
<path d="M17.9391 61.7932C16.9164 61.7932 16.1035 60.9803 16.1035 59.9576V14.8554C16.1035 13.8327 16.9164 13.0198 17.9391 13.0198H53.4702C54.4929 13.0198 55.3058 13.8327 55.3058 14.8554V59.9576C55.3058 60.9803 54.4929 61.7932 53.4702 61.7932H17.9391Z" fill="white"/>
<path d="M53.4702 13.8065C54.0471 13.8065 54.5191 14.2785 54.5191 14.8554V59.9576C54.5191 60.5345 54.0471 61.0065 53.4702 61.0065H17.9391C17.3622 61.0065 16.8902 60.5345 16.8902 59.9576V14.8554C16.8902 14.2785 17.3622 13.8065 17.9391 13.8065H53.4702ZM53.4702 12.2332H17.9391C16.4969 12.2332 15.3169 13.4132 15.3169 14.8554V59.9576C15.3169 61.3999 16.4969 62.5799 17.9391 62.5799H53.4702C54.9125 62.5799 56.0925 61.3999 56.0925 59.9576V14.8554C56.0925 13.4132 54.9125 12.2332 53.4702 12.2332Z" fill="#636363"/>
<path d="M25.0714 44.6176C26.5341 44.6176 27.7199 43.4319 27.7199 41.9692C27.7199 40.5065 26.5341 39.3207 25.0714 39.3207C23.6087 39.3207 22.423 40.5065 22.423 41.9692C22.423 43.4319 23.6087 44.6176 25.0714 44.6176Z" fill="#EAEAEA"/>
<path d="M25.0715 45.4038C23.1835 45.4038 21.6363 43.8567 21.6363 41.9687C21.6363 40.0807 23.1835 38.5336 25.0715 38.5336C26.9595 38.5336 28.5066 40.0807 28.5066 41.9687C28.5066 43.8567 26.9857 45.4038 25.0715 45.4038ZM25.0715 40.0807C24.0488 40.0807 23.2097 40.9198 23.2097 41.9425C23.2097 42.9652 24.0488 43.8043 25.0715 43.8043C26.0941 43.8043 26.9332 42.9652 26.9332 41.9425C26.9332 40.9198 26.0941 40.0807 25.0715 40.0807Z" fill="#636363"/>
<path d="M35.7175 44.6176C37.1802 44.6176 38.366 43.4319 38.366 41.9692C38.366 40.5065 37.1802 39.3207 35.7175 39.3207C34.2548 39.3207 33.0691 40.5065 33.0691 41.9692C33.0691 43.4319 34.2548 44.6176 35.7175 44.6176Z" fill="#EAEAEA"/>
<path d="M35.7177 45.4043C33.8297 45.4043 32.2826 43.8572 32.2826 41.9692C32.2826 40.0812 33.8297 38.5341 35.7177 38.5341C37.6057 38.5341 39.1528 40.0812 39.1528 41.9692C39.1528 43.8572 37.6057 45.4043 35.7177 45.4043ZM35.7177 40.0812C34.695 40.0812 33.8559 40.9203 33.8559 41.943C33.8559 42.9656 34.695 43.8047 35.7177 43.8047C36.7404 43.8047 37.5795 42.9656 37.5795 41.943C37.5795 40.9203 36.7404 40.0812 35.7177 40.0812Z" fill="#636363"/>
<path d="M46.3641 39.2945C44.8957 39.2945 43.6894 40.5007 43.6894 41.9691V52.5891C43.5845 54.0576 44.6859 55.3425 46.1543 55.4474C47.6228 55.5523 48.9077 54.4509 49.0126 52.9825C49.0126 52.8514 49.0126 52.7203 49.0126 52.5891V41.9691C49.0126 40.5007 47.8325 39.2945 46.3641 39.2945Z" fill="#EAEAEA"/>
<path d="M46.3377 56.2341C46.259 56.2341 46.1541 56.2341 46.0755 56.2341C44.1875 56.103 42.7453 54.4247 42.8764 52.5367V41.9692C42.8764 40.055 44.4235 38.5078 46.3377 38.5078H46.3639C48.2781 38.5078 49.799 40.0812 49.799 41.9692V52.5892C49.799 52.6941 49.799 52.8776 49.799 53.035C49.7204 53.9527 49.3008 54.7918 48.619 55.395C47.9635 55.9456 47.1768 56.2341 46.3377 56.2341ZM46.3639 39.2945V40.0812C45.315 40.0812 44.4759 40.9203 44.4759 41.9692V52.5892C44.4497 53.1398 44.607 53.6381 44.9217 54.0052C45.2364 54.3723 45.7084 54.6083 46.2066 54.6607C46.7573 54.687 47.203 54.5296 47.5701 54.215C47.9373 53.9003 48.1733 53.4283 48.2257 52.9301C48.2257 52.8252 48.2257 52.7465 48.2257 52.6678V41.9692C48.2257 40.9465 47.3866 40.0812 46.3639 40.0812V39.2945Z" fill="#636363"/>
<path d="M25.0714 55.2376C26.5341 55.2376 27.7198 54.0518 27.7198 52.5892C27.7198 51.1265 26.5341 49.9407 25.0714 49.9407C23.6087 49.9407 22.4229 51.1265 22.4229 52.5892C22.4229 54.0518 23.6087 55.2376 25.0714 55.2376Z" fill="#EAEAEA"/>
<path d="M25.0714 56.0243C23.1834 56.0243 21.6363 54.4772 21.6363 52.5892C21.6363 50.7012 23.1834 49.1541 25.0714 49.1541C26.9594 49.1541 28.5065 50.7012 28.5065 52.5892C28.5065 54.4772 26.9856 56.0243 25.0714 56.0243ZM25.0714 50.7274C24.0488 50.7274 23.2096 51.5665 23.2096 52.5892C23.2096 53.6118 24.0488 54.4509 25.0714 54.4509C26.0941 54.4509 26.9332 53.6118 26.9332 52.5892C26.9332 51.5665 26.0941 50.7274 25.0714 50.7274Z" fill="#636363"/>
<path d="M35.7175 55.2376C37.1802 55.2376 38.366 54.0518 38.366 52.5892C38.366 51.1265 37.1802 49.9407 35.7175 49.9407C34.2548 49.9407 33.0691 51.1265 33.0691 52.5892C33.0691 54.0518 34.2548 55.2376 35.7175 55.2376Z" fill="#EAEAEA"/>
<path d="M35.7177 56.0243C33.8297 56.0243 32.2826 54.4772 32.2826 52.5892C32.2826 50.7012 33.8297 49.1541 35.7177 49.1541C37.6057 49.1541 39.1528 50.7012 39.1528 52.5892C39.1528 54.4772 37.6057 56.0243 35.7177 56.0243ZM35.7177 50.7274C34.695 50.7274 33.8559 51.5665 33.8559 52.5892C33.8559 53.6118 34.695 54.4509 35.7177 54.4509C36.7404 54.4509 37.5795 53.6118 37.5795 52.5892C37.5795 51.5665 36.7404 50.7274 35.7177 50.7274Z" fill="#636363"/>
<path d="M56.0925 14.6719V60.1412C56.0925 61.4785 55.0173 62.5799 53.6538 62.5799H17.7555C16.4182 62.5799 15.3169 61.4785 15.3169 60.1412H48.7502C50.1138 60.1412 51.1889 59.0399 51.1889 57.7025V12.2332H53.6276C55.0173 12.2332 56.0925 13.3345 56.0925 14.6719Z" fill="#9747ff"/>
<path d="M55.1746 13.9638V32.8438H51.1888V12.7838H53.9684C54.6502 12.7838 55.1746 13.3083 55.1746 13.9638Z" fill="#EAEAEA"/>
<path d="M56.0925 32.1621H15.3169V33.7354H56.0925V32.1621Z" fill="#636363"/>
<path d="M53.4702 13.8065C54.0471 13.8065 54.5191 14.2785 54.5191 14.8554V59.9576C54.5191 60.5345 54.0471 61.0065 53.4702 61.0065H17.9391C17.3622 61.0065 16.8902 60.5345 16.8902 59.9576V14.8554C16.8902 14.2785 17.3622 13.8065 17.9391 13.8065H53.4702ZM53.4702 12.2332H17.9391C16.4969 12.2332 15.3169 13.4132 15.3169 14.8554V59.9576C15.3169 61.3999 16.4969 62.5799 17.9391 62.5799H53.4702C54.9125 62.5799 56.0925 61.3999 56.0925 59.9576V14.8554C56.0925 13.4132 54.9125 12.2332 53.4702 12.2332Z" fill="#636363"/>
<path d="M51.1889 17.8185H44.5022V19.3919H51.1889V17.8185Z" fill="#636363"/>
<path d="M51.1889 20.4932H44.5022V22.0665H51.1889V20.4932Z" fill="#636363"/>
<path d="M48.5403 29.8021L44.5021 24.3741C44.3185 24.1381 44.2923 23.8234 44.4234 23.5612C44.5545 23.299 44.8168 23.1154 45.1314 23.1154H46.5212C47.5439 23.1154 48.383 22.2763 48.383 21.2537C48.383 20.231 47.5439 19.3919 46.5212 19.3919H44.5021V17.8185H46.5212C48.4092 17.8185 49.9563 19.3657 49.9563 21.2537C49.9563 23.0892 48.5141 24.5839 46.7048 24.6888L49.799 28.8843L48.5403 29.8021Z" fill="#636363"/>
<path d="M29.6079 23.0367C29.6079 25.3704 27.7199 27.2847 25.3599 27.2847H11.4097C9.07587 27.2847 7.16165 25.3704 7.16165 23.0367C7.16165 19.1033 9.70521 15.3535 12.5372 11.9446C14.3203 9.7682 16.2083 8.43087 16.759 8.03754H20.063C20.6137 8.43087 22.6328 9.7682 24.4421 11.9446C27.3003 15.3535 29.6079 19.1033 29.6079 23.0367Z" fill="white"/>
<path d="M25.3599 28.0713H11.4097C8.63011 28.0713 6.375 25.8162 6.375 23.0367C6.375 18.7362 9.18078 14.7504 11.9341 11.4464C13.1666 9.95177 14.635 8.58822 16.3132 7.40822C16.4706 7.30333 16.6279 7.25089 16.7852 7.25089H20.0892C20.2466 7.25089 20.4039 7.30333 20.535 7.382C21.243 7.88022 23.2621 9.24377 25.0715 11.4464C27.3528 14.1998 30.3683 18.3953 30.3683 23.0367C30.3683 24.374 29.8439 25.6327 28.8999 26.6029C27.9821 27.5469 26.6972 28.0713 25.3599 28.0713ZM17.0474 8.82422C15.579 9.89933 14.2679 11.1056 13.1666 12.4429C10.5968 15.5633 7.94833 19.2344 7.94833 23.0367C7.94833 24.9509 9.49545 26.498 11.4097 26.498H25.3599C26.2777 26.498 27.143 26.1309 27.7986 25.4753C28.4541 24.8198 28.795 23.9544 28.795 23.0367C28.795 19.89 27.2217 16.5073 23.839 12.4429C22.2919 10.5549 20.5612 9.32244 19.827 8.82422H17.0474Z" fill="#636363"/>
<path d="M10.4919 3.2389C11.4621 2.39979 12.4061 2.03268 13.5337 2.03268C14.7399 2.03268 16.0772 2.42601 17.8603 3.10779C18.2274 3.2389 18.6208 3.31757 19.0403 3.31757C20.0368 3.31757 20.9808 2.92423 21.8723 2.55712C22.7377 2.19001 23.5768 1.84912 24.3634 1.84912C24.7568 1.84912 25.3074 1.92779 25.9892 2.39979L22.4754 9.92557H14.3203L10.4919 3.2389Z" fill="white"/>
<path d="M22.4754 10.6861H14.3466C14.0581 10.6861 13.7959 10.5287 13.6648 10.2927L9.81011 3.63228C9.62655 3.31761 9.679 2.89806 9.96744 2.66206C12.1963 0.721611 14.4252 1.01006 18.1226 2.37361C19.1452 2.74072 20.4563 2.26872 21.5577 1.82294C22.4754 1.45583 23.3932 1.0625 24.3634 1.0625C24.8354 1.0625 25.5434 1.14117 26.435 1.7705C26.7497 1.98028 26.8546 2.39983 26.6972 2.74072L23.1834 10.2665C23.0523 10.5025 22.7639 10.6861 22.4754 10.6861ZM14.7923 9.11273H21.9772L24.9666 2.7145C24.7306 2.63583 24.5208 2.60961 24.3634 2.60961C23.7079 2.60961 22.9737 2.92428 22.187 3.26517C20.9283 3.78961 19.0928 4.39272 17.5981 3.84206C14.7399 2.79317 13.1141 2.37361 11.5146 3.44872L14.7923 9.11273Z" fill="#636363"/>
<path d="M29.608 23.0368C29.608 25.3705 27.72 27.2848 25.36 27.2848H22.292C24.652 27.2848 26.54 25.3705 26.54 23.0368C26.54 19.1034 24.2586 15.3536 21.4004 11.9447C20.7449 11.1581 20.0631 10.4763 19.4337 9.89942H19.4075V9.87319L20.2466 8.14252L22.9213 2.39986C22.8164 2.32119 22.7377 2.26875 22.6328 2.24252C23.2097 2.00652 23.8129 1.82297 24.3635 1.82297C24.7569 1.82297 25.3075 1.90163 25.9893 2.39986L22.4755 9.87319C23.1049 10.4501 23.8129 11.1319 24.4684 11.9447C27.3266 15.3536 29.608 19.1034 29.608 23.0368Z" fill="#9747ff"/>
<path d="M25.36 28.0714H11.436C8.65642 28.0714 6.40131 25.8163 6.40131 23.0368C6.40131 18.7101 9.20708 14.7505 11.9604 11.4465C12.5635 10.7123 13.2453 10.0043 13.9271 9.32253C14.0844 9.19142 14.268 9.11275 14.4778 9.11275H22.3182C22.5542 9.06031 22.8164 9.11275 23 9.29631C23.6293 9.87319 24.3635 10.5812 25.0715 11.4465C28.6902 15.7732 30.3946 19.4443 30.3946 23.0368C30.3946 25.8163 28.1395 28.0714 25.36 28.0714ZM14.7924 10.6861C14.2155 11.2368 13.6649 11.8399 13.1666 12.443C10.5969 15.5372 7.97464 19.2083 7.97464 23.0368C7.97464 24.951 9.52175 26.4981 11.436 26.4981H25.36C27.2742 26.4981 28.8213 24.951 28.8213 23.0368C28.8213 19.8376 27.248 16.4812 23.8653 12.443C23.3146 11.7612 22.7115 11.1581 22.1871 10.6861H14.7924Z" fill="#636363"/>
<path d="M22.4754 10.6861H14.3466C14.0581 10.6861 13.7959 10.5287 13.6648 10.2927L9.81011 3.6323C9.62655 3.29141 9.679 2.89807 9.96744 2.63585C12.1439 0.747851 14.2941 0.957629 18.1226 2.37363C19.1977 2.76696 20.3252 2.34741 21.5314 1.82296L21.7937 1.71807C23.3146 1.11496 24.9666 0.695407 26.435 1.77052C26.7497 1.9803 26.8546 2.39985 26.671 2.74074L23.1834 10.1616C23.0786 10.4501 22.7901 10.6861 22.4754 10.6861ZM14.7923 9.11274H21.951L24.9666 2.71452C24.7306 2.60963 24.5208 2.60963 24.3634 2.60963C23.7866 2.60963 23.1048 2.87185 22.3968 3.1603L22.1608 3.26519C20.7448 3.89452 19.1452 4.39274 17.5981 3.84207C14.6088 2.76696 13.0354 2.39985 11.5146 3.44874L14.7923 9.11274Z" fill="#636363"/>
</svg>