<svg width="68" height="68" viewBox="0 0 68 68" fill="none" xmlns="http://www.w3.org/2000/svg">
<path d="M15.7909 13.2763C15.7909 12.8917 16.1026 12.58 16.4872 12.58H53.8852C54.2692 12.58 54.5805 12.8913 54.5805 13.2753V60.1453C54.5805 60.5293 54.2692 60.8406 53.8852 60.8406H16.4872C16.1026 60.8406 15.7909 60.5289 15.7909 60.1443V13.2763Z" fill="white"/>
<path fill-rule="evenodd" clip-rule="evenodd" d="M17.6062 11.8022H52.7648C54.1958 11.8022 55.3579 12.9644 55.3579 14.3981V59.0225C55.3579 60.4561 54.1957 61.6181 52.7648 61.6181H17.6062C16.1726 61.6181 15.0131 60.4561 15.0131 59.0225V14.3981C15.0131 12.9644 16.1726 11.8022 17.6062 11.8022ZM53.8014 14.3981C53.8014 13.8235 53.3368 13.3587 52.7648 13.3587H17.6062C17.0344 13.3587 16.5695 13.8235 16.5695 14.3981V59.0226C16.5695 59.5944 17.0344 60.0618 17.6062 60.0618H52.7648C53.3367 60.0618 53.8014 59.5944 53.8014 59.0226V14.3981Z" fill="#9747ff"/>
<path d="M55.3478 14.2072V59.2103C55.3478 60.5395 54.2849 61.6258 52.9297 61.6258H17.4264C16.0972 61.6258 15.011 60.5395 15.011 59.2103H48.0962C49.4489 59.2103 50.5142 58.1214 50.5142 56.7922V11.7916H52.9297C54.2849 11.7916 55.3478 12.878 55.3478 14.2072Z" fill="#9747ff"/>
<path d="M54.4512 13.508V32.1892H50.5134V12.325H53.2684C53.9212 12.325 54.4512 12.8552 54.4512 13.508Z" fill="#EAEAEA"/>
<rect x="15.011" y="31.5095" width="40.3477" height="1.55556" fill="#9747ff"/>
<path fill-rule="evenodd" clip-rule="evenodd" d="M17.6062 11.8022H52.7648C54.1958 11.8022 55.3579 12.9644 55.3579 14.3981V59.0225C55.3579 60.4561 54.1957 61.6181 52.7648 61.6181H17.6062C16.1726 61.6181 15.0131 60.4561 15.0131 59.0225V14.3981C15.0131 12.9644 16.1726 11.8022 17.6062 11.8022ZM53.8014 14.3981C53.8014 13.8235 53.3368 13.3587 52.7648 13.3587H17.6062C17.0344 13.3587 16.5695 13.8235 16.5695 14.3981V59.0226C16.5695 59.5944 17.0344 60.0618 17.6062 60.0618H52.7648C53.3367 60.0618 53.8014 59.5944 53.8014 59.0226V14.3981Z" fill="#9747ff"/>
<rect x="23.0966" y="45.9149" width="6.69401" height="1.55556" fill="#9747ff"/>
<rect x="25.6678" y="43.3478" width="1.55556" height="6.69402" fill="#9747ff"/>
<path fill-rule="evenodd" clip-rule="evenodd" d="M19.584 46.6951C19.584 50.4762 22.6628 53.555 26.4439 53.555C30.2251 53.555 33.3038 50.4762 33.3038 46.6951C33.3038 42.9113 30.2251 39.8352 26.4439 39.8352C22.6628 39.8352 19.584 42.9113 19.584 46.6951ZM21.1404 46.6951C21.1404 43.7679 23.5193 41.3889 26.4439 41.3889C29.3686 41.3889 31.7475 43.7679 31.7475 46.6951C31.7475 49.6198 29.3686 51.9986 26.4439 51.9986C23.5193 51.9986 21.1404 49.6198 21.1404 46.6951Z" fill="#9747ff"/>
<rect x="40.5684" y="47.3832" width="6.69401" height="1.55556" fill="#9747ff"/>
<rect x="40.5684" y="44.4529" width="6.69401" height="1.55556" fill="#9747ff"/>
<path fill-rule="evenodd" clip-rule="evenodd" d="M37.0557 46.6951C37.0557 50.4762 40.1318 53.555 43.913 53.555C47.6968 53.555 50.7728 50.4762 50.7728 46.6951C50.7728 42.9113 47.6968 39.8352 43.913 39.8352C40.1318 39.8352 37.0557 42.9113 37.0557 46.6951ZM38.6094 46.6951C38.6094 43.7679 40.9884 41.3889 43.913 41.3889C46.8403 41.3889 49.2191 43.7679 49.2191 46.6951C49.2191 49.6198 46.8403 51.9986 43.913 51.9986C40.9884 51.9986 38.6094 49.6198 38.6094 46.6951Z" fill="#9747ff"/>
<rect x="44.8184" y="17.6715" width="5.69437" height="1.33625" fill="#9747ff"/>
<rect x="44.8184" y="19.958" width="5.69437" height="1.33625" fill="#9747ff"/>
<path d="M48.2494 27.866L44.8208 23.2388C44.672 23.0377 44.6484 22.7661 44.7634 22.5416C44.8757 22.317 45.1081 22.1734 45.3587 22.1734H46.5365C47.4086 22.1734 48.119 21.4605 48.119 20.5909C48.119 19.7188 47.4086 19.0085 46.5365 19.0085H44.8182V17.6715H46.5365C48.1477 17.6715 49.4559 18.9797 49.4559 20.5909C49.4559 22.1499 48.226 23.4294 46.6853 23.5077L49.3254 27.0696L48.2494 27.866Z" fill="#9747ff"/>
<rect x="7.15295" y="7.15302" width="34.0673" height="17.3694" rx="0.99361" fill="white"/>
<path fill-rule="evenodd" clip-rule="evenodd" d="M9.74616 25.2991H38.6246C40.4864 25.2991 41.9984 23.7871 41.9984 21.9279V9.74623C41.9984 7.88698 40.4864 6.375 38.6246 6.375H9.74616C7.88951 6.375 6.375 7.88698 6.375 9.74623V21.9279C6.375 23.7871 7.88951 25.2991 9.74616 25.2991ZM7.93139 9.74621C7.93139 8.7461 8.74869 7.93133 9.74614 7.93133H38.6246C39.6273 7.93133 40.442 8.7461 40.442 9.74621V21.9279C40.442 22.928 39.6273 23.7454 38.6246 23.7454H9.74614C8.74869 23.7454 7.93139 22.928 7.93139 21.9279V9.74621Z" fill="#9747ff"/>
<path d="M41.2193 9.74128V21.9204C41.2193 23.3514 40.0495 24.5239 38.6159 24.5239H9.75572C8.29867 24.5239 7.15485 23.3514 7.15485 21.9204H36.015C37.446 21.9204 38.6159 20.7479 38.6159 19.3169V7.13788C40.0495 7.13788 41.2193 8.31024 41.2193 9.74128Z" fill="#9747ff"/>
<path fill-rule="evenodd" clip-rule="evenodd" d="M9.74616 25.2991H38.6246C40.4864 25.2991 41.9984 23.7871 41.9984 21.9279V9.74623C41.9984 7.88698 40.4864 6.375 38.6246 6.375H9.74616C7.88951 6.375 6.375 7.88698 6.375 9.74623V21.9279C6.375 23.7871 7.88951 25.2991 9.74616 25.2991ZM7.93139 9.74621C7.93139 8.7461 8.74869 7.93133 9.74614 7.93133H38.6246C39.6273 7.93133 40.442 8.7461 40.442 9.74621V21.9279C40.442 22.928 39.6273 23.7454 38.6246 23.7454H9.74614C8.74869 23.7454 7.93139 22.928 7.93139 21.9279V9.74621Z" fill="#9747ff"/>
<path d="M12.9311 13.2516V20.1846H11.2625V10.6718H12.9729L17.8377 17.4193V10.6718H19.5064V20.1846H17.8952L12.9311 13.2516Z" fill="#9747ff"/>
<path fill-rule="evenodd" clip-rule="evenodd" d="M26.2845 10.6718H22.1064V20.1846H23.7776V16.6333H26.2845C28.2691 16.6333 29.3971 15.2624 29.3971 13.6512C29.3971 12.04 28.2821 10.6718 26.2845 10.6718ZM23.7776 12.1392H26.0599V12.1392C26.9999 12.1392 27.6841 12.7399 27.6841 13.6512C27.6841 14.5651 26.9999 15.1632 26.0599 15.1632H23.7776V12.1392Z" fill="#9747ff"/>
<path d="M31.6668 17.5596C32.3248 18.2593 33.351 18.8704 34.6776 18.8704C36.0459 18.8704 36.589 18.1993 36.589 17.5725C36.589 16.7187 35.5758 16.4601 34.4217 16.1625C32.8653 15.7786 31.04 15.3216 31.04 13.3083C31.04 11.739 32.424 10.5273 34.5052 10.5273C35.9885 10.5273 37.187 10.9999 38.0723 11.8539L37.1165 13.0941C36.3749 12.3526 35.3617 12.0106 34.3616 12.0106C33.3771 12.0106 32.7504 12.4805 32.7504 13.1935C32.7504 13.9376 33.7218 14.1779 34.85 14.4651C36.4167 14.8647 38.2864 15.3504 38.2864 17.4185C38.2864 19.001 37.1714 20.3562 34.607 20.3562C32.8522 20.3562 31.5831 19.7426 30.7424 18.8442L31.6668 17.5596Z" fill="#9747ff"/>
</svg>