<svg width="68" height="68" viewBox="0 0 68 68" fill="none" xmlns="http://www.w3.org/2000/svg">
<path d="M51.4796 12.4076H17.2786C16.3028 12.4076 15.5118 13.1986 15.5118 14.1744V57.5882C15.5118 58.564 16.3028 59.3551 17.2786 59.3551H51.4796C52.4554 59.3551 53.2465 58.564 53.2465 57.5882V14.1744C53.2465 13.1986 52.4554 12.4076 51.4796 12.4076Z" fill="white"/>
<path d="M51.48 13.1647C51.7478 13.1647 52.0046 13.2711 52.1939 13.4604C52.3833 13.6498 52.4896 13.9066 52.4896 14.1743V57.5881C52.4896 57.8559 52.3833 58.1127 52.1939 58.302C52.0046 58.4914 51.7478 58.5977 51.48 58.5977H17.279C17.0112 58.5977 16.7544 58.4914 16.5651 58.302C16.3757 58.1127 16.2694 57.8559 16.2694 57.5881V14.1743C16.2694 13.9066 16.3757 13.6498 16.5651 13.4604C16.7544 13.2711 17.0112 13.1647 17.279 13.1647H51.48ZM51.48 11.6503H17.279C16.6096 11.6503 15.9676 11.9162 15.4942 12.3895C15.0209 12.8629 14.7549 13.5049 14.7549 14.1743V57.5881C14.7549 58.2575 15.0209 58.8996 15.4942 59.3729C15.9676 59.8463 16.6096 60.1122 17.279 60.1122H51.48C52.1494 60.1122 52.7914 59.8463 53.2648 59.3729C53.7381 58.8996 54.0041 58.2575 54.0041 57.5881V14.1743C54.0041 13.5049 53.7381 12.8629 53.2648 12.3895C52.7914 11.9162 52.1494 11.6503 51.48 11.6503Z" fill="#636363"/>
<path d="M24.1443 42.8224C25.5522 42.8224 26.6936 41.6811 26.6936 40.2731C26.6936 38.8652 25.5522 37.7238 24.1443 37.7238C22.7363 37.7238 21.595 38.8652 21.595 40.2731C21.595 41.6811 22.7363 42.8224 24.1443 42.8224Z" fill="#EAEAEA"/>
<path d="M24.0438 43.5797C23.3827 43.5847 22.7351 43.3929 22.1833 43.0287C21.6316 42.6645 21.2006 42.1445 20.9453 41.5346C20.69 40.9248 20.6219 40.2528 20.7497 39.6042C20.8774 38.9556 21.1953 38.3596 21.6627 37.8921C22.1302 37.4246 22.7262 37.1068 23.3748 36.9791C24.0235 36.8513 24.6954 36.9194 25.3053 37.1747C25.9151 37.43 26.4352 37.861 26.7993 38.4127C27.1635 38.9645 27.3553 39.6121 27.3503 40.2732C27.3503 41.1501 27.0019 41.9911 26.3819 42.6112C25.7618 43.2313 24.9207 43.5797 24.0438 43.5797ZM24.0438 38.5316C23.6833 38.5266 23.3295 38.6289 23.0274 38.8255C22.7252 39.0221 22.4883 39.3042 22.3469 39.6358C22.2055 39.9674 22.1659 40.3335 22.2331 40.6877C22.3004 41.0419 22.4714 41.368 22.7246 41.6247C22.9777 41.8814 23.3014 42.057 23.6546 42.1292C24.0078 42.2014 24.3745 42.1669 24.7081 42.0302C25.0416 41.8934 25.3269 41.6605 25.5278 41.3611C25.7286 41.0617 25.8358 40.7094 25.8359 40.3489C25.8496 40.1052 25.8135 39.8613 25.7296 39.632C25.6457 39.4028 25.5159 39.1932 25.3481 39.0159C25.1803 38.8387 24.978 38.6975 24.7537 38.6012C24.5295 38.5049 24.2879 38.4555 24.0438 38.4558V38.5316Z" fill="#636363"/>
<path d="M34.3925 42.8224C35.8004 42.8224 36.9418 41.6811 36.9418 40.2731C36.9418 38.8652 35.8004 37.7238 34.3925 37.7238C32.9846 37.7238 31.8432 38.8652 31.8432 40.2731C31.8432 41.6811 32.9846 42.8224 34.3925 42.8224Z" fill="#EAEAEA"/>
<path d="M34.3923 43.5797C33.7312 43.5847 33.0836 43.3929 32.5318 43.0287C31.9801 42.6645 31.5491 42.1445 31.2939 41.5346C31.0386 40.9248 30.9704 40.2528 31.0982 39.6042C31.226 38.9556 31.5438 38.3596 32.0113 37.8921C32.4787 37.4246 33.0747 37.1068 33.7233 36.9791C34.372 36.8513 35.044 36.9194 35.6538 37.1747C36.2636 37.43 36.7837 37.861 37.1479 38.4127C37.512 38.9645 37.7038 39.6121 37.6988 40.2732C37.6922 41.1481 37.3417 41.9853 36.7231 42.6039C36.1044 43.2226 35.2672 43.5731 34.3923 43.5797ZM34.3923 38.5316C34.0318 38.5266 33.678 38.6289 33.3759 38.8255C33.0737 39.0221 32.8369 39.3042 32.6954 39.6358C32.554 39.9674 32.5144 40.3335 32.5816 40.6877C32.6489 41.0419 32.8199 41.368 33.0731 41.6247C33.3262 41.8814 33.6499 42.057 34.0031 42.1292C34.3563 42.2014 34.723 42.1669 35.0566 42.0302C35.3901 41.8934 35.6754 41.6605 35.8763 41.3611C36.0771 41.0617 36.1844 40.7094 36.1844 40.3489C36.1945 40.106 36.1559 39.8636 36.0707 39.636C35.9855 39.4084 35.8555 39.2002 35.6884 39.0236C35.5213 38.8471 35.3205 38.7059 35.0979 38.6084C34.8753 38.5109 34.6353 38.459 34.3923 38.4558V38.5316Z" fill="#636363"/>
<path d="M44.64 37.6987C43.9706 37.6987 43.3286 37.9646 42.8552 38.4379C42.3818 38.9113 42.1159 39.5533 42.1159 40.2227V50.4452C42.0657 51.1146 42.2835 51.7765 42.7213 52.2854C43.1592 52.7942 43.7813 53.1083 44.4507 53.1585C45.1201 53.2087 45.782 52.991 46.2909 52.5531C46.7998 52.1153 47.1138 51.4932 47.164 50.8238V40.2227C47.164 39.5533 46.8981 38.9113 46.4248 38.4379C45.9514 37.9646 45.3094 37.6987 44.64 37.6987Z" fill="#EAEAEA"/>
<path d="M44.6148 54.0545H44.3876C43.5077 53.9899 42.6894 53.5789 42.1121 52.9117C41.5348 52.2445 41.2457 51.3756 41.3082 50.4956V40.3994C41.3082 39.5157 41.6593 38.6683 42.2841 38.0434C42.9089 37.4186 43.7564 37.0676 44.64 37.0676C45.0764 37.0676 45.5084 37.1539 45.9112 37.3217C46.314 37.4894 46.6797 37.7352 46.987 38.045C47.2944 38.3547 47.5374 38.7222 47.7021 39.1263C47.8668 39.5303 47.9498 39.963 47.9465 40.3994V51.0509C47.8648 51.8765 47.478 52.6419 46.8619 53.1974C46.2457 53.7529 45.4444 54.0585 44.6148 54.0545ZM44.6148 37.7491V38.5063C44.1328 38.5063 43.6705 38.6978 43.3297 39.0386C42.9889 39.3794 42.7974 39.8416 42.7974 40.3236V50.5461C42.7732 50.7905 42.7987 51.0372 42.8724 51.2715C42.9462 51.5058 43.0666 51.7227 43.2265 51.9091C43.3784 52.0934 43.5666 52.2446 43.7793 52.3531C43.9921 52.4617 44.2249 52.5253 44.4633 52.5401C44.7008 52.5608 44.94 52.5338 45.167 52.4609C45.3939 52.388 45.604 52.2705 45.785 52.1154C45.966 51.9603 46.1142 51.7706 46.221 51.5575C46.3278 51.3443 46.391 51.112 46.4068 50.8742V40.2732C46.4102 40.0357 46.3663 39.7999 46.2777 39.5796C46.1892 39.3592 46.0577 39.1587 45.891 38.9896C45.7242 38.8205 45.5255 38.6863 45.3064 38.5946C45.0874 38.503 44.8522 38.4558 44.6148 38.4558V37.7491Z" fill="#636363"/>
<path d="M24.1443 53.045C25.5522 53.045 26.6936 51.9036 26.6936 50.4957C26.6936 49.0877 25.5522 47.9464 24.1443 47.9464C22.7363 47.9464 21.595 49.0877 21.595 50.4957C21.595 51.9036 22.7363 53.045 24.1443 53.045Z" fill="#EAEAEA"/>
<path d="M24.0428 53.8021C23.3889 53.8021 22.7496 53.6081 22.2058 53.2448C21.6621 52.8815 21.2383 52.3651 20.988 51.7609C20.7378 51.1567 20.6723 50.4919 20.7999 49.8505C20.9274 49.2091 21.2424 48.6199 21.7048 48.1575C22.1672 47.6951 22.7564 47.3801 23.3978 47.2526C24.0392 47.125 24.704 47.1905 25.3082 47.4407C25.9124 47.691 26.4288 48.1148 26.7921 48.6585C27.1554 49.2023 27.3494 49.8416 27.3494 50.4955C27.3494 51.3725 27.001 52.2135 26.3809 52.8336C25.7608 53.4537 24.9198 53.8021 24.0428 53.8021ZM24.0428 48.7539C23.6884 48.7539 23.3419 48.859 23.0472 49.056C22.7525 49.2529 22.5228 49.5328 22.3872 49.8602C22.2515 50.1877 22.2161 50.548 22.2852 50.8956C22.3543 51.2433 22.525 51.5626 22.7757 51.8132C23.0263 52.0638 23.3456 52.2345 23.6932 52.3037C24.0409 52.3728 24.4012 52.3373 24.7286 52.2017C25.0561 52.0661 25.336 51.8364 25.5329 51.5417C25.7298 51.2469 25.8349 50.9005 25.8349 50.546C25.8417 50.3065 25.8003 50.068 25.7133 49.8447C25.6262 49.6214 25.4953 49.4179 25.3282 49.2461C25.1611 49.0743 24.9613 48.9377 24.7405 48.8445C24.5197 48.7513 24.2825 48.7034 24.0428 48.7035V48.7539Z" fill="#636363"/>
<path d="M34.3925 53.045C35.8004 53.045 36.9418 51.9036 36.9418 50.4957C36.9418 49.0877 35.8004 47.9464 34.3925 47.9464C32.9846 47.9464 31.8432 49.0877 31.8432 50.4957C31.8432 51.9036 32.9846 53.045 34.3925 53.045Z" fill="#EAEAEA"/>
<path d="M34.3918 53.8021C33.7379 53.8021 33.0986 53.6081 32.5548 53.2448C32.0111 52.8815 31.5873 52.3651 31.337 51.7609C31.0868 51.1567 31.0213 50.4919 31.1489 49.8505C31.2764 49.2091 31.5914 48.6199 32.0538 48.1575C32.5162 47.6951 33.1054 47.3801 33.7468 47.2526C34.3882 47.125 35.053 47.1905 35.6572 47.4407C36.2614 47.691 36.7778 48.1148 37.1411 48.6585C37.5044 49.2023 37.6984 49.8416 37.6984 50.4955C37.6918 51.3704 37.3413 52.2076 36.7226 52.8263C36.1039 53.445 35.2667 53.7955 34.3918 53.8021ZM34.3918 48.7539C34.0374 48.7539 33.6909 48.859 33.3962 49.056C33.1015 49.2529 32.8718 49.5328 32.7362 49.8602C32.6005 50.1877 32.5651 50.548 32.6342 50.8956C32.7033 51.2433 32.874 51.5626 33.1247 51.8132C33.3753 52.0638 33.6946 52.2345 34.0422 52.3037C34.3899 52.3728 34.7502 52.3373 35.0776 52.2017C35.4051 52.0661 35.685 51.8364 35.8819 51.5417C36.0788 51.2469 36.1839 50.9005 36.1839 50.546C36.1907 50.3065 36.1493 50.068 36.0623 49.8447C35.9752 49.6214 35.8443 49.4179 35.6772 49.2461C35.5101 49.0743 35.3103 48.9377 35.0895 48.8445C34.8687 48.7513 34.6315 48.7034 34.3918 48.7035V48.7539Z" fill="#636363"/>
<path d="M54.0041 13.9976V57.7901C54.0041 58.4126 53.7567 59.0097 53.3165 59.4499C52.8763 59.8901 52.2792 60.1374 51.6567 60.1374H17.1023C16.4798 60.1374 15.8827 59.8901 15.4425 59.4499C15.0023 59.0097 14.7549 58.4126 14.7549 57.7901H46.9367C47.2471 57.7901 47.5544 57.7285 47.8409 57.609C48.1273 57.4894 48.3872 57.3143 48.6055 57.0936C48.8238 56.873 48.9962 56.6112 49.1127 56.3235C49.2291 56.0358 49.2874 55.7278 49.2841 55.4174V11.6503H51.6567C51.9649 11.6503 52.2702 11.711 52.555 11.829C52.8398 11.9469 53.0985 12.1198 53.3165 12.3378C53.5345 12.5558 53.7074 12.8145 53.8254 13.0993C53.9433 13.3841 54.0041 13.6894 54.0041 13.9976Z" fill="#9747ff"/>
<path d="M53.1203 13.3161V31.4893H49.2838V12.1803H51.9845C52.2857 12.1803 52.5746 12.2999 52.7876 12.5129C53.0007 12.726 53.1203 13.0149 53.1203 13.3161Z" fill="#EAEAEA"/>
<path d="M54.0041 30.8331H14.7549V32.3476H54.0041V30.8331Z" fill="#636363"/>
<path d="M51.48 13.1647C51.7478 13.1647 52.0046 13.2711 52.1939 13.4604C52.3833 13.6498 52.4896 13.9066 52.4896 14.1743V57.5881C52.4896 57.8559 52.3833 58.1127 52.1939 58.302C52.0046 58.4914 51.7478 58.5977 51.48 58.5977H17.279C17.0112 58.5977 16.7544 58.4914 16.5651 58.302C16.3757 58.1127 16.2694 57.8559 16.2694 57.5881V14.1743C16.2694 13.9066 16.3757 13.6498 16.5651 13.4604C16.7544 13.2711 17.0112 13.1647 17.279 13.1647H51.48ZM51.48 11.6503H17.279C16.6096 11.6503 15.9676 11.9162 15.4942 12.3895C15.0209 12.8629 14.7549 13.5049 14.7549 14.1743V57.5881C14.7549 58.2575 15.0209 58.8996 15.4942 59.3729C15.9676 59.8463 16.6096 60.1122 17.279 60.1122H51.48C52.1494 60.1122 52.7914 59.8463 53.2648 59.3729C53.7381 58.8996 54.0041 58.2575 54.0041 57.5881V14.1743C54.0041 13.5049 53.7381 12.8629 53.2648 12.3895C52.7914 11.9162 52.1494 11.6503 51.48 11.6503Z" fill="#636363"/>
<path d="M49.2833 17.0265H42.847V18.541H49.2833V17.0265Z" fill="#636363"/>
<path d="M49.2833 19.601H42.847V21.1155H49.2833V19.601Z" fill="#636363"/>
<path d="M46.7605 28.5615L42.8734 23.3114C42.7931 23.1968 42.7499 23.0602 42.7499 22.9202C42.7499 22.7802 42.7931 22.6436 42.8734 22.529C42.9332 22.4044 43.026 22.2985 43.1417 22.2229C43.2574 22.1472 43.3915 22.1047 43.5297 22.0999H44.8674C45.1189 22.1299 45.3739 22.1062 45.6156 22.0305C45.8572 21.9548 46.0801 21.8287 46.2695 21.6606C46.4589 21.4924 46.6105 21.2861 46.7143 21.0551C46.8181 20.8241 46.8718 20.5737 46.8718 20.3204C46.8718 20.0672 46.8181 19.8168 46.7143 19.5858C46.6105 19.3548 46.4589 19.1484 46.2695 18.9803C46.0801 18.8121 45.8572 18.686 45.6156 18.6103C45.3739 18.5346 45.1189 18.511 44.8674 18.541H42.9239V17.0265H44.8674C45.6955 17.0733 46.4757 17.4295 47.0535 18.0245C47.6312 18.6196 47.9642 19.4101 47.9864 20.2391C48.0087 21.0682 47.7185 21.8754 47.1735 22.5006C46.6285 23.1257 45.8685 23.5233 45.0441 23.6143L48.0225 27.6528L46.7605 28.5615Z" fill="#636363"/>
<path d="M37.7245 7.13242H9.63172C8.23773 7.13242 7.10767 8.26248 7.10767 9.65647V21.4943C7.10767 22.8883 8.23773 24.0184 9.63172 24.0184H37.7245C39.1185 24.0184 40.2486 22.8883 40.2486 21.4943V9.65647C40.2486 8.26248 39.1185 7.13242 37.7245 7.13242Z" fill="white"/>
<path d="M37.7238 24.8006H9.63103C8.76517 24.794 7.93703 24.4453 7.32712 23.8307C6.71721 23.216 6.37497 22.3852 6.375 21.5194V9.65628C6.375 8.78603 6.7207 7.95142 7.33606 7.33606C7.95142 6.7207 8.78603 6.375 9.65628 6.375H37.7238C38.594 6.375 39.4287 6.7207 40.044 7.33606C40.6594 7.95142 41.0051 8.78603 41.0051 9.65628V21.5194C41.0051 22.3896 40.6594 23.2242 40.044 23.8396C39.4287 24.4549 38.594 24.8006 37.7238 24.8006ZM9.63103 7.88943C9.16447 7.89596 8.71885 8.08421 8.38891 8.41415C8.05896 8.74409 7.87072 9.18971 7.86419 9.65628V21.5194C7.87072 21.9859 8.05896 22.4315 8.38891 22.7615C8.71885 23.0914 9.16447 23.2797 9.63103 23.2862H37.7238C38.1924 23.2862 38.6418 23.1 38.9731 22.7687C39.3045 22.4373 39.4906 21.9879 39.4906 21.5194V9.65628C39.4906 9.18768 39.3045 8.73828 38.9731 8.40693C38.6418 8.07558 38.1924 7.88943 37.7238 7.88943H9.63103Z" fill="#636363"/>
<path d="M40.2475 9.65647V21.4943C40.2475 22.1637 39.9816 22.8057 39.5082 23.2791C39.0349 23.7524 38.3928 24.0184 37.7234 24.0184H9.65589C8.98647 24.0184 8.34447 23.7524 7.87111 23.2791C7.39776 22.8057 7.13184 22.1637 7.13184 21.4943H35.1994C35.8688 21.4943 36.5108 21.2284 36.9841 20.755C37.4575 20.2817 37.7234 19.6397 37.7234 18.9703V7.13242C38.3928 7.13242 39.0349 7.39834 39.5082 7.8717C39.9816 8.34505 40.2475 8.98705 40.2475 9.65647Z" fill="#9747ff"/>
<path d="M37.7238 24.8006H9.63103C8.76517 24.794 7.93703 24.4453 7.32712 23.8307C6.71721 23.216 6.37497 22.3852 6.375 21.5194V9.65628C6.375 8.78603 6.7207 7.95142 7.33606 7.33606C7.95142 6.7207 8.78603 6.375 9.65628 6.375H37.7238C38.594 6.375 39.4287 6.7207 40.044 7.33606C40.6594 7.95142 41.0051 8.78603 41.0051 9.65628V21.5194C41.0051 22.3896 40.6594 23.2242 40.044 23.8396C39.4287 24.4549 38.594 24.8006 37.7238 24.8006ZM9.63103 7.88943C9.16447 7.89596 8.71885 8.08421 8.38891 8.41415C8.05896 8.74409 7.87072 9.18971 7.86419 9.65628V21.5194C7.87072 21.9859 8.05896 22.4315 8.38891 22.7615C8.71885 23.0914 9.16447 23.2797 9.63103 23.2862H37.7238C38.1924 23.2862 38.6418 23.1 38.9731 22.7687C39.3045 22.4373 39.4906 21.9879 39.4906 21.5194V9.65628C39.4906 9.18768 39.3045 8.73828 38.9731 8.40693C38.6418 8.07558 38.1924 7.88943 37.7238 7.88943H9.63103Z" fill="#636363"/>
<path d="M12.2812 11.1456H15.9916C16.6912 11.1456 17.3621 11.4235 17.8567 11.9182C18.3514 12.4128 18.6293 13.0837 18.6293 13.7833C18.6293 14.4828 18.3514 15.1537 17.8567 15.6484C17.3621 16.143 16.6912 16.4209 15.9916 16.4209H13.7704V19.576H12.2812V11.1456ZM15.7897 12.4581H13.7704V15.1841H15.7897C16.1445 15.1841 16.4847 15.0432 16.7356 14.7923C16.9865 14.5414 17.1274 14.2012 17.1274 13.8464C17.1274 13.4916 16.9865 13.1513 16.7356 12.9004C16.4847 12.6496 16.1445 12.5086 15.7897 12.5086V12.4581Z" fill="#636363"/>
<path d="M20.4591 11.1456H24.1695C24.869 11.1456 25.5399 11.4235 26.0346 11.9182C26.5292 12.4128 26.8071 13.0837 26.8071 13.7833C26.8071 14.4828 26.5292 15.1537 26.0346 15.6484C25.5399 16.143 24.869 16.4209 24.1695 16.4209H21.9483V19.576H20.4591V11.1456ZM24.0433 12.5086H22.024V15.1841H24.0433C24.3981 15.1841 24.7383 15.0432 24.9892 14.7923C25.2401 14.5414 25.381 14.2012 25.381 13.8464C25.381 13.4916 25.2401 13.1513 24.9892 12.9004C24.7383 12.6496 24.3981 12.5086 24.0433 12.5086Z" fill="#636363"/>
<path d="M28.6369 11.1456H34.417V12.4581H30.1261V14.6793H34.316V15.9918H30.1261V19.6265H28.6369V11.1456Z" fill="#636363"/>
</svg>