<svg width="68" height="68" viewBox="0 0 68 68" fill="none" xmlns="http://www.w3.org/2000/svg">
<path d="M17.6342 60.8395C16.5868 60.8395 15.8013 60.0539 15.8013 59.0065V13.9685C15.8013 12.9211 16.5868 12.1356 17.6342 12.1356H53.2456C54.293 12.1356 55.0786 12.9211 55.0786 13.9685V59.0065C55.0786 60.0539 54.293 60.8395 53.2456 60.8395H17.6342Z" fill="white"/>
<path d="M53.2458 12.9211C53.7695 12.9211 54.2932 13.4448 54.2932 13.9685V59.0065C54.2932 59.5302 53.7695 60.0539 53.2458 60.0539H17.6344C17.1107 60.0539 16.587 59.5302 16.587 59.0065V13.9685C16.587 13.4448 17.1107 12.9211 17.6344 12.9211H53.2458ZM53.2458 11.35H17.6344C16.0633 11.35 15.0159 12.3974 15.0159 13.9685V59.0065C15.0159 60.5776 16.0633 61.625 17.6344 61.625H53.2458C54.8169 61.625 55.8643 60.5776 55.8643 59.0065V13.9685C55.8643 12.6593 54.5551 11.35 53.2458 11.35Z" fill="#636363"/>
<path d="M55.8643 13.7066V59.0065C55.8643 60.3158 54.8169 61.3631 53.5077 61.3631H17.6344C16.3251 61.3631 15.2777 60.3158 15.2777 59.0065H48.7944C50.1037 59.0065 51.151 57.9591 51.151 56.6499V11.35H53.5077C54.8169 11.35 55.8643 12.3974 55.8643 13.7066Z" fill="#9747ff"/>
<path d="M54.8171 13.1829V32.036H50.8893V11.8736H53.7697C54.2934 11.8736 54.8171 12.3973 54.8171 13.1829Z" fill="#EAEAEA"/>
<path d="M55.8643 31.2506H15.0159V32.8217H55.8643V31.2506Z" fill="#636363"/>
<path d="M53.2458 12.9211C53.7695 12.9211 54.2932 13.4448 54.2932 13.9685V59.0065C54.2932 59.5302 53.7695 60.0539 53.2458 60.0539H17.6344C17.1107 60.0539 16.587 59.5302 16.587 59.0065V13.9685C16.587 13.4448 17.1107 12.9211 17.6344 12.9211H53.2458ZM53.2458 11.35H17.6344C16.0633 11.35 15.0159 12.3974 15.0159 13.9685V59.0065C15.0159 60.5776 16.0633 61.625 17.6344 61.625H53.2458C54.8169 61.625 55.8643 60.5776 55.8643 59.0065V13.9685C55.8643 12.6593 54.5551 11.35 53.2458 11.35Z" fill="#636363"/>
<path d="M48.2704 40.9389H22.3473V42.51H48.2704V40.9389Z" fill="#636363"/>
<path d="M48.2704 50.6273H22.3473V52.1984H48.2704V50.6273Z" fill="#636363"/>
<path d="M40.6768 44.343C42.1229 44.343 43.2953 43.1707 43.2953 41.7245C43.2953 40.2784 42.1229 39.106 40.6768 39.106C39.2306 39.106 38.0583 40.2784 38.0583 41.7245C38.0583 43.1707 39.2306 44.343 40.6768 44.343Z" fill="#EAEAEA"/>
<path d="M40.6771 45.1285C38.8441 45.1285 37.273 43.5574 37.273 41.7245C37.273 39.8916 38.8441 38.3205 40.6771 38.3205C42.51 38.3205 44.0811 39.8916 44.0811 41.7245C44.0811 43.5574 42.51 45.1285 40.6771 45.1285ZM40.6771 39.8916C39.6297 39.8916 38.8441 40.6771 38.8441 41.7245C38.8441 42.7719 39.6297 43.5574 40.6771 43.5574C41.7245 43.5574 42.51 42.7719 42.51 41.7245C42.51 40.6771 41.7245 39.8916 40.6771 39.8916Z" fill="#636363"/>
<path d="M30.2029 54.0314C31.6491 54.0314 32.8214 52.8591 32.8214 51.4129C32.8214 49.9668 31.6491 48.7944 30.2029 48.7944C28.7568 48.7944 27.5844 49.9668 27.5844 51.4129C27.5844 52.8591 28.7568 54.0314 30.2029 54.0314Z" fill="#EAEAEA"/>
<path d="M30.203 54.8169C28.37 54.8169 26.7989 53.2458 26.7989 51.4129C26.7989 49.5799 28.37 48.0088 30.203 48.0088C32.0359 48.0088 33.607 49.5799 33.607 51.4129C33.607 53.2458 32.2978 54.8169 30.203 54.8169ZM30.203 49.5799C29.1556 49.5799 28.37 50.3655 28.37 51.4129C28.37 52.4603 29.1556 53.2458 30.203 53.2458C31.2504 53.2458 32.0359 52.4603 32.0359 51.4129C32.0359 50.3655 31.2504 49.5799 30.203 49.5799Z" fill="#636363"/>
<path d="M51.1512 16.849H44.3431V18.4201H51.1512V16.849Z" fill="#636363"/>
<path d="M51.1512 19.4675H44.3431V21.0385H51.1512V19.4675Z" fill="#636363"/>
<path d="M48.2707 28.894L44.3429 23.3952C44.0811 23.1333 44.0811 22.8715 44.3429 22.6096C44.6048 22.3478 44.8666 22.0859 45.1285 22.0859H46.4377C47.4851 22.0859 48.2707 21.3004 48.2707 20.253C48.2707 19.2056 47.4851 18.42 46.4377 18.42H44.3429V16.849H46.4377C48.2707 16.849 49.8418 18.42 49.8418 20.253C49.8418 22.0859 48.2707 23.657 46.6996 23.657L49.8418 27.8466L48.2707 28.894Z" fill="#636363"/>
<path d="M39.1059 24.7045H9.77884C8.20775 24.7045 7.16035 23.6571 7.16035 22.086V9.77907C7.16035 8.20798 8.20775 7.16058 9.77884 7.16058H39.1059C40.677 7.16058 41.7244 8.20798 41.7244 9.77907V22.086C41.7244 23.6571 40.4152 24.7045 39.1059 24.7045Z" fill="white"/>
<path d="M39.1061 25.49H9.77904C7.94609 25.49 6.375 23.9189 6.375 22.0859V9.77904C6.375 7.94609 7.94609 6.375 9.77904 6.375H39.1061C40.9391 6.375 42.5102 7.94609 42.5102 9.77904V22.0859C42.5102 24.1807 40.9391 25.49 39.1061 25.49ZM9.77904 7.94609C8.73164 7.94609 7.94609 8.73164 7.94609 9.77904V22.0859C7.94609 23.1333 8.73164 23.9189 9.77904 23.9189H39.1061C40.1535 23.9189 40.9391 23.1333 40.9391 22.0859V9.77904C40.9391 8.73164 40.1535 7.94609 39.1061 7.94609H9.77904Z" fill="#636363"/>
<path d="M41.7244 9.77907V22.086C41.7244 23.6571 40.4152 24.7045 39.1059 24.7045H9.77884C8.20775 24.7045 7.16035 23.3952 7.16035 22.086H36.4874C38.0585 22.086 39.1059 20.7767 39.1059 19.4675V7.16058C40.4152 7.16058 41.7244 8.46983 41.7244 9.77907Z" fill="#9747ff"/>
<path d="M39.1061 25.49H9.77904C7.94609 25.49 6.375 23.9189 6.375 22.0859V9.77904C6.375 7.94609 7.94609 6.375 9.77904 6.375H39.1061C40.9391 6.375 42.5102 7.94609 42.5102 9.77904V22.0859C42.5102 24.1807 40.9391 25.49 39.1061 25.49ZM9.77904 7.94609C8.73164 7.94609 7.94609 8.73164 7.94609 9.77904V22.0859C7.94609 23.1333 8.73164 23.9189 9.77904 23.9189H39.1061C40.1535 23.9189 40.9391 23.1333 40.9391 22.0859V9.77904C40.9391 8.73164 40.1535 7.94609 39.1061 7.94609H9.77904Z" fill="#636363"/>
<path d="M18.4199 16.5873H16.8488V20.2531H15.0159V10.5647H19.4673C21.3003 10.5647 22.6095 11.874 22.6095 13.4451C22.6095 15.278 21.5621 16.0636 20.2529 16.3254L22.6095 19.9913H20.7766L18.4199 16.5873ZM19.2055 12.1358H16.8488V15.278H19.2055C20.2529 15.278 20.7766 14.7543 20.7766 13.7069C20.7766 12.6595 19.991 12.1358 19.2055 12.1358Z" fill="#636363"/>
<path d="M24.7045 10.5647H28.3704C31.2507 10.5647 33.3455 12.6595 33.3455 15.278C33.3455 18.1583 31.2507 19.9913 28.3704 19.9913H24.7045V10.5647ZM28.3704 18.682C30.4652 18.682 31.7744 17.111 31.7744 15.278C31.7744 13.4451 30.727 11.874 28.3704 11.874H26.5374V18.682H28.3704Z" fill="#636363"/>
</svg>
