<svg width="68" height="68" viewBox="0 0 68 68" fill="none" xmlns="http://www.w3.org/2000/svg">
<path d="M15.8844 12.8269C15.8844 12.4429 16.1957 12.1316 16.5797 12.1316H54.3349C54.7189 12.1316 55.0302 12.4429 55.0302 12.8269V60.1366C55.0302 60.5212 54.7184 60.8329 54.3339 60.8329H16.5807C16.1961 60.8329 15.8844 60.5212 15.8844 60.1366V12.8269Z" fill="white"/>
<path fill-rule="evenodd" clip-rule="evenodd" d="M17.717 11.3475H53.197C54.6434 11.3475 55.8131 12.5199 55.8131 13.9636V58.9992C55.8131 60.4457 54.6434 61.6181 53.197 61.6181H17.717C16.2706 61.6181 15.0981 60.4457 15.0981 58.9992V13.9636C15.0981 12.5199 16.2706 11.3475 17.717 11.3475ZM54.2429 13.9636C54.2429 13.3867 53.7739 12.9177 53.197 12.9177H17.717C17.1399 12.9177 16.6711 13.3867 16.6711 13.9636V58.9993C16.6711 59.5764 17.1399 60.0479 17.717 60.0479H53.197C53.774 60.0479 54.2429 59.5764 54.2429 58.9993V13.9636Z" fill="#636363"/>
<path d="M55.8026 13.7739V59.1863C55.8026 60.5274 54.7304 61.626 53.363 61.626H17.5352C16.1942 61.626 15.0981 60.5274 15.0981 59.1863H48.4864C49.8511 59.1863 50.9233 58.0903 50.9233 56.7493V11.3369H53.363C54.7304 11.3369 55.8026 12.4329 55.8026 13.7739Z" fill="#9747ff"/>
<path d="M54.8991 13.0685V31.9216H50.9235V11.8724H53.7056C54.3643 11.8724 54.8991 12.4098 54.8991 13.0685Z" fill="#EAEAEA"/>
<rect x="15.1003" y="31.2333" width="40.7152" height="1.56944" fill="#636363"/>
<path fill-rule="evenodd" clip-rule="evenodd" d="M17.717 11.3475H53.197C54.6434 11.3475 55.8131 12.5199 55.8131 13.9636V58.9992C55.8131 60.4457 54.6434 61.6181 53.197 61.6181H17.717C16.2706 61.6181 15.0981 60.4457 15.0981 58.9992V13.9636C15.0981 12.5199 16.2706 11.3475 17.717 11.3475ZM54.2429 13.9636C54.2429 13.3867 53.7739 12.9177 53.197 12.9177H17.717C17.1399 12.9177 16.6711 13.3867 16.6711 13.9636V58.9993C16.6711 59.5764 17.1399 60.0479 17.717 60.0479H53.197C53.774 60.0479 54.2429 59.5764 54.2429 58.9993V13.9636Z" fill="#636363"/>
<rect x="22.4952" y="40.8234" width="25.9265" height="1.56943" fill="#636363"/>
<rect x="22.4952" y="50.6643" width="25.9265" height="1.56943" fill="#636363"/>
<ellipse cx="40.7353" cy="41.6081" rx="2.65035" ry="2.65035" fill="#EAEAEA"/>
<path fill-rule="evenodd" clip-rule="evenodd" d="M37.3001 41.609C37.3001 43.5033 38.8413 45.0445 40.7356 45.0445C42.6299 45.0445 44.1711 43.5033 44.1711 41.609C44.1711 39.7147 42.6299 38.1735 40.7356 38.1735C38.8413 38.1735 37.3001 39.7147 37.3001 41.609ZM38.8703 41.609C38.8703 40.5789 39.7081 39.7436 40.7356 39.7436C41.7658 39.7436 42.6008 40.5789 42.6008 41.609C42.6008 42.6365 41.7657 43.4743 40.7356 43.4743C39.7081 43.4743 38.8703 42.6365 38.8703 41.609Z" fill="#636363"/>
<ellipse cx="30.3216" cy="51.4643" rx="2.65035" ry="2.65035" fill="#EAEAEA"/>
<path fill-rule="evenodd" clip-rule="evenodd" d="M26.8855 51.4648C26.8855 53.3591 28.4267 54.9004 30.321 54.9004C32.2153 54.9004 33.7565 53.3591 33.7565 51.4648C33.7565 49.5706 32.2153 48.0293 30.321 48.0293C28.4267 48.0293 26.8855 49.5706 26.8855 51.4648ZM28.4558 51.4648C28.4558 50.4348 29.2909 49.5995 30.321 49.5995C31.3512 49.5995 32.1863 50.4348 32.1863 51.4648C32.1863 52.495 31.3512 53.3302 30.321 53.3302C29.2909 53.3302 28.4558 52.495 28.4558 51.4648Z" fill="#636363"/>
<rect x="45.1818" y="17.3336" width="5.74258" height="1.34817" fill="#636363"/>
<rect x="45.1818" y="19.6371" width="5.74258" height="1.34817" fill="#636363"/>
<path d="M48.6423 27.6165L45.1857 22.948C45.0329 22.7425 45.0091 22.4685 45.1251 22.2419C45.2384 22.0154 45.4728 21.8731 45.7284 21.8731H46.9141C47.7939 21.8731 48.5105 21.1565 48.5105 20.2765C48.5105 19.3966 47.7939 18.6826 46.9141 18.6826H45.1831V17.3336H46.9141C48.537 17.3336 49.8594 18.6536 49.8594 20.2765C49.8594 21.8494 48.6185 23.1377 47.0642 23.2167L49.7278 26.8155L48.6423 27.6165Z" fill="#636363"/>
<rect x="7.16028" y="7.16101" width="34.555" height="17.6181" rx="0.99361" fill="white"/>
<path fill-rule="evenodd" clip-rule="evenodd" d="M9.77632 25.5628H39.0967C40.9751 25.5628 42.5005 24.0373 42.5005 22.1615V9.77897C42.5005 7.90045 40.9751 6.375 39.0967 6.375H9.77632C7.90039 6.375 6.375 7.90047 6.375 9.77897V22.1615C6.375 24.0373 7.90041 25.5628 9.77632 25.5628ZM7.94529 9.779C7.94529 8.76733 8.76726 7.94529 9.77632 7.94529H39.0967C40.1083 7.94529 40.9303 8.76735 40.9303 9.779V22.1616C40.9303 23.1706 40.1083 23.9926 39.0967 23.9926H9.77632C8.76726 23.9926 7.94529 23.1706 7.94529 22.1616V9.779Z" fill="#636363"/>
<path d="M41.7203 9.79909V22.1526C41.7203 23.6043 40.5321 24.7925 39.0804 24.7925H9.80751C8.32951 24.7925 7.1676 23.6043 7.1676 22.1526H36.4406C37.8923 22.1526 39.0804 20.9645 39.0804 19.5128V7.15912C40.5321 7.15912 41.7203 8.34742 41.7203 9.79909Z" fill="#9747ff"/>
<path fill-rule="evenodd" clip-rule="evenodd" d="M9.77632 25.5628H39.0967C40.9751 25.5628 42.5005 24.0373 42.5005 22.1615V9.77897C42.5005 7.90045 40.9751 6.375 39.0967 6.375H9.77632C7.90039 6.375 6.375 7.90047 6.375 9.77897V22.1615C6.375 24.0373 7.90041 25.5628 9.77632 25.5628ZM7.94529 9.779C7.94529 8.76733 8.76726 7.94529 9.77632 7.94529H39.0967C40.1083 7.94529 40.9303 8.76735 40.9303 9.779V22.1616C40.9303 23.1706 40.1083 23.9926 39.0967 23.9926H9.77632C8.76726 23.9926 7.94529 23.1706 7.94529 22.1616V9.779Z" fill="#636363"/>
<path d="M13.9462 18.164C14.61 18.8701 15.6454 19.4866 16.9838 19.4866C18.3669 19.4866 18.9123 18.8095 18.9123 18.1772C18.9123 17.3157 17.8901 17.0549 16.7256 16.7545C15.1554 16.3672 13.3138 15.9062 13.3138 13.875C13.3138 12.2915 14.7102 11.0691 16.8099 11.0691C18.3064 11.0691 19.5156 11.546 20.4087 12.4074L19.4445 13.659C18.6963 12.9107 17.674 12.5655 16.665 12.5655C15.6718 12.5655 15.0394 13.0397 15.0394 13.7589C15.0394 14.5098 16.0195 14.7523 17.1577 15.042C18.741 15.4452 20.6248 15.9352 20.6248 18.0218C20.6248 19.6183 19.5024 20.9857 16.9126 20.9857C15.1395 20.9857 13.8619 20.3666 13.0135 19.4602L13.9462 18.164Z" fill="#636363"/>
<path d="M22.7587 11.2136H24.4449V20.8114H22.7587V11.2136Z" fill="#636363"/>
<path fill-rule="evenodd" clip-rule="evenodd" d="M31.2793 11.2136H27.064L27.064 20.8114H28.7475V17.2284H31.2793C33.2817 17.2284 34.4198 15.8453 34.4198 14.2197C34.4198 12.5942 33.2949 11.2136 31.2793 11.2136ZM28.7475 12.6943H31.0501V12.6943C32.0013 12.6943 32.6889 13.3002 32.6889 14.2197C32.6889 15.1417 32.0013 15.7451 31.0501 15.7451H28.7475V12.6943Z" fill="#636363"/>
</svg>